<svg width="440" height="427" viewBox="0 0 440 427" fill="none" xmlns="http://www.w3.org/2000/svg">
<g id="Icons / about">
<path id="Vector 62" d="M118.034 9.14682L19.486 107.239C8.67035 118.005 8.47971 135.453 19.0576 146.452L115.406 246.641C120.68 252.124 127.96 255.223 135.568 255.223H319.309C327.73 255.223 335.702 251.43 341.014 244.896L423.212 143.779C432.616 132.211 431.294 115.3 420.208 105.334L312.13 8.17018C306.995 3.55391 300.334 1 293.43 1H137.767C130.371 1 123.276 3.9292 118.034 9.14682Z" stroke="#F9E4D8" stroke-width="1.91311"/>
<g id="goals_icon">
<g id="file">
<path id="Rectangle 75" d="M119.551 78.8123C102.46 78.8123 88.6053 92.6671 88.6053 109.758V376.865C88.6053 384.888 95.1085 391.391 103.131 391.391H302.441C310.463 391.391 316.966 384.888 316.966 376.865V109.758C316.966 92.6671 303.112 78.8123 286.021 78.8123H119.551Z" fill="white" stroke="#F9E4D8" stroke-width="7.57853"/>
<path id="Rectangle 76" d="M142.466 78.8123H142.465C142.465 80.1283 142.465 81.4443 142.465 82.6016C142.465 83.7588 142.465 85.0748 142.465 86.3908H142.466H142.467H142.47H142.472H142.476H142.479H142.486H142.49H142.498H142.503H142.514H142.519H142.532H142.538H142.553H142.56H142.577H142.585H142.604H142.612H142.634H142.642H142.668H142.675H142.704H142.711H142.743H142.75H142.785H142.791H142.83H142.835H142.878H142.881H142.929H142.931H142.983H142.983H143.038H143.04C147.672 86.3908 151.307 89.3004 153.995 93.5083C156.731 97.7904 157.853 102.476 157.853 104.135V104.153V104.171V104.19V104.209V104.228V104.247V104.266V104.286V104.305V104.325V104.346V104.366V104.387V104.408V104.429V104.45V104.471V104.493V104.515V104.537V104.559V104.582V104.604V104.627V104.65V104.673V104.697V104.72V104.744V104.768V104.793V104.817V104.842V104.867V104.892V104.917V104.942V104.968V104.994V105.02V105.046V105.072V105.099V105.125V105.152V105.18V105.207V105.234V105.262V105.29V105.318V105.346V105.375V105.403V105.432V105.461V105.49V105.52V105.549V105.579V105.609V105.639V105.669V105.699V105.73V105.761V105.792V105.823V105.854V105.886V105.917V105.949V105.981V106.013V106.046V106.078V106.111V106.144V106.177V106.21V106.243V106.277V106.311V106.344V106.378V106.413V106.447V106.482V106.516V106.551V106.586V106.621V106.657V106.692V106.728V106.764V106.8V106.836V106.872V106.909V106.945V106.982V107.019V107.056V107.093V107.131V107.168V107.206V107.244V107.282V107.32V107.358V107.397V107.435V107.474V107.513V107.552V107.591V107.631V107.67V107.71V107.75V107.79V107.83V107.87V107.91V107.951V107.992V108.033V108.073V108.115V108.156V108.197V108.239V108.28V108.322V108.364V108.406V108.448V108.491V108.533V108.576V108.619V108.661V108.704V108.748V108.791V108.834V108.878V108.921V108.965V109.009V109.053V109.097V109.142V109.186V109.231V109.275V109.32V109.365V109.41V109.455V109.501V109.546V109.592V109.637V109.683V109.729V109.775V109.821V109.868V109.914V109.961V110.007V110.054V110.101V110.148V110.195V110.242V110.289V110.337V110.384V110.432V110.48V110.528V110.576V110.624V110.672V110.72V110.769V110.817V110.866V110.915V110.964V111.013V111.062V111.111V111.16V111.21V111.259V111.309V111.358V111.408V111.458V111.508V111.558V111.608V111.658V111.709V111.759V111.81V111.861V111.911V111.962V112.013V112.064V112.115V112.167V112.218V112.269V112.321V112.372V112.424V112.476V112.528V112.58V112.632V112.684V112.736V112.788V112.841V112.893V112.946V112.999V113.051V113.104V113.157V113.21V113.263V113.316V113.369V113.423V113.476V113.529V113.583V113.637V113.69V113.744V113.798V113.852V113.906V113.96V114.014V114.068V114.122V114.177V114.231V114.286V114.34V114.395V114.45V114.504V114.559V114.614V114.669V114.724V114.779V114.834V114.89V114.945V115V115.056V115.111V115.167V115.222V115.278V115.334V115.389V115.445V115.501V115.557V115.613V115.669V115.725V115.781V115.838V115.894V115.95V116.007V116.063V116.12V116.176V116.233V116.289V116.346V116.403V116.46V116.517V116.573V116.63V116.687V116.744V116.802V116.859V116.916V116.973V117.03V117.088V117.145V117.202V117.26V117.317V117.375V117.432V117.49V117.547V117.605V117.663V117.721V117.778V117.836V117.894V117.952V118.01V118.068V118.126V118.184V118.242V118.3V118.358V118.416V118.474V118.532V118.591V118.649V118.707V118.765V118.824V118.882V118.94V118.999V119.057V119.116V119.174V119.233V119.291V119.35V119.408V119.467V119.525V119.584V119.643V119.701V119.76V119.819V119.877V119.936V119.995V120.054V120.112V120.171V120.23V120.289V120.347V120.406V120.465V120.524V120.583V120.642V120.7V120.759V120.818V120.877V120.936V120.995V121.054V121.113V121.172V121.23V121.289V121.348V121.407V121.466V121.525V121.584V121.643V121.702V121.761V121.82V121.879V121.937V121.996V122.055V122.114V122.173V122.232V122.291V122.35V122.409V122.467V122.526V122.585V122.644V122.703V122.761V122.82V122.879V122.938V122.997V123.055V123.114V123.173V123.231V123.29V123.349V123.407V123.466V123.525V123.583V123.642V123.7V123.759V123.817V123.876V123.934V123.993V124.051V124.109V124.168V124.226V124.284V124.343V124.401V124.459V124.517V124.576V124.634V124.692V124.75V124.808V124.866V124.924V124.982V125.04V125.098V125.156V125.213V125.271V125.329V125.387V125.444V125.502V125.56V125.617V125.675V125.732V125.79V125.847V125.904V125.962V126.019V126.076V126.134V126.191V126.248V126.305V126.362V126.419V126.476V126.533V126.589V126.646V126.703V126.76V126.816V126.873V126.929V126.986V127.042V127.099V127.155V127.211V127.267V127.324V127.38V127.436V127.492V127.548V127.604V127.659V127.715V127.771V127.826V127.882V127.938V127.993V128.048V128.104V128.159V128.214V128.269V128.324V128.379V128.434V128.489V128.544V128.599V128.653V128.708V128.763V128.817V128.871C157.853 136.896 164.359 143.391 172.378 143.391H328.729C336.751 143.391 343.254 136.888 343.254 128.865V109.758C343.254 92.6775 329.467 78.8123 312.366 78.8123H312.036H311.704H311.371H311.037H310.701H310.363H310.024H309.684H309.342H308.999H308.654H308.308H307.96H307.611H307.261H306.909H306.555H306.201H305.845H305.487H305.129H304.769H304.407H304.045H303.681H303.315H302.949H302.581H302.211H301.841H301.469H301.096H300.722H300.346H299.97H299.592H299.212H298.832H298.45H298.068H297.684H297.299H296.912H296.525H296.137H295.747H295.356H294.964H294.571H294.177H293.782H293.386H292.988H292.59H292.191H291.79H291.389H290.986H290.583H290.178H289.772H289.366H288.958H288.55H288.141H287.73H287.319H286.907H286.493H286.079H285.664H285.248H284.832H284.414H283.995H283.576H283.156H282.735H282.313H281.89H281.466H281.042H280.617H280.191H279.764H279.336H278.908H278.479H278.049H277.619H277.187H276.755H276.323H275.889H275.455H275.021H274.585H274.149H273.712H273.275H272.837H272.398H271.959H271.519H271.078H270.637H270.196H269.753H269.31H268.867H268.423H267.979H267.534H267.088H266.642H266.196H265.748H265.301H264.853H264.404H263.956H263.506H263.056H262.606H262.155H261.704H261.253H260.801H260.349H259.896H259.443H258.989H258.536H258.082H257.627H257.172H256.717H256.262H255.806H255.35H254.894H254.438H253.981H253.524H253.067H252.609H252.151H251.693H251.235H250.777H250.318H249.86H249.401H248.942H248.482H248.023H247.563H247.104H246.644H246.184H245.724H245.264H244.804H244.344H243.884H243.423H242.963H242.502H242.042H241.581H241.121H240.66H240.2H239.739H239.279H238.819H238.358H237.898H237.438H236.977H236.517H236.057H235.597H235.137H234.678H234.218H233.759H233.299H232.84H232.381H231.922H231.464H231.005H230.547H230.089H229.631H229.173H228.716H228.259H227.802H227.345H226.889H226.432H225.976H225.521H225.066H224.611H224.156H223.702H223.248H222.794H222.341H221.888H221.435H220.983H220.531H220.08H219.629H219.179H218.728H218.279H217.829H217.381H216.932H216.485H216.037H215.59H215.144H214.698H214.253H213.808H213.363H212.92H212.477H212.034H211.592H211.15H210.709H210.269H209.829H209.39H208.952H208.514H208.077H207.64H207.204H206.769H206.334H205.901H205.467H205.035H204.603H204.172H203.742H203.312H202.884H202.455H202.028H201.602H201.176H200.751H200.327H199.904H199.481H199.059H198.639H198.219H197.799H197.381H196.964H196.547H196.132H195.717H195.303H194.89H194.478H194.067H193.657H193.248H192.84H192.433H192.026H191.621H191.217H190.814H190.412H190.01H189.61H189.211H188.813H188.416H188.02H187.625H187.232H186.839H186.448H186.057H185.668H185.28H184.893H184.507H184.122H183.739H183.356H182.975H182.595H182.216H181.839H181.462H181.087H180.713H180.341H179.969H179.599H179.23H178.863H178.497H178.132H177.768H177.406H177.045H176.685H176.327H175.97H175.614H175.26H174.907H174.556H174.206H173.857H173.51H173.165H172.82H172.477H172.136H171.796H171.458H171.121H170.785H170.451H170.119H169.788H169.458H169.13H168.804H168.479H168.156H167.834H167.514H167.195H166.879H166.563H166.25H165.938H165.627H165.318H165.011H164.706H164.402H164.1H163.799H163.501H163.204H162.908H162.615H162.323H162.033H161.744H161.458H161.173H160.89H160.609H160.329H160.051H159.776H159.501H159.229H158.959H158.69H158.424H158.159H157.896H157.635H157.376H157.119H156.863H156.61H156.358H156.109H155.861H155.616H155.372H155.13H154.89H154.653H154.417H154.183H153.952H153.722H153.494H153.269H153.045H152.824H152.604H152.387H152.172H151.959H151.748H151.539H151.332H151.127H150.925H150.725H150.526H150.33H150.137H149.945H149.755H149.568H149.383H149.2H149.02H148.842H148.665H148.492H148.32H148.151H147.984H147.819H147.657H147.497H147.339H147.184H147.031H146.88H146.732H146.586H146.442H146.301H146.162H146.026H145.892H145.76H145.631H145.504H145.38H145.258H145.139H145.022H144.907H144.796H144.686H144.579H144.475H144.373H144.274H144.177H144.083H143.991H143.902H143.816H143.732H143.651H143.572H143.496H143.422H143.352H143.283H143.218H143.155H143.095H143.04H143.038H142.983H142.983H142.931H142.929H142.881H142.878H142.835H142.83H142.791H142.785H142.75H142.743H142.711H142.704H142.675H142.668H142.642H142.634H142.612H142.604H142.585H142.577H142.56H142.553H142.538H142.532H142.519H142.514H142.503H142.498H142.49H142.486H142.479H142.476H142.472H142.47H142.467H142.466Z" stroke="#F9E4D8" stroke-width="7.57853"/>
</g>
<g id="goal">
<g id="board">
<ellipse id="Ellipse 16" rx="49.9368" ry="49.9982" transform="matrix(0.478076 0.878315 -0.879305 0.476252 286.41 300.228)" fill="#F1BC9F"/>
<ellipse id="Ellipse 15" rx="31.4602" ry="31.4989" transform="matrix(0.478076 0.878315 -0.879305 0.476252 286.171 300.704)" fill="white"/>
<path id="Ellipse 13" d="M327.499 382.441C283.115 406.596 227.646 390.203 203.607 345.825C179.568 301.448 196.062 245.892 240.447 221.737C284.831 197.582 340.3 213.975 364.339 258.352C388.378 302.729 371.884 358.286 327.499 382.441ZM249.805 239.014C214.671 258.134 201.329 301.582 220.357 336.71C239.386 371.838 283.006 384.285 318.14 365.164C353.274 346.043 366.617 302.596 347.589 267.468C328.56 232.34 284.939 219.893 249.805 239.014Z" fill="#F4C9B2"/>
<path id="Ellipse 14" d="M319.67 364.779C284.463 383.848 240.424 370.833 221.306 335.709C202.187 300.585 215.229 256.654 250.436 237.585C285.643 218.517 329.682 231.532 348.801 266.656C367.919 301.779 354.877 345.711 319.67 364.779ZM260.885 256.781C236.304 270.094 227.199 300.765 240.547 325.288C253.895 349.81 284.641 358.897 309.222 345.584C333.802 332.271 342.908 301.599 329.56 277.077C316.212 252.555 285.465 243.468 260.885 256.781Z" fill="white"/>
</g>
<g id="goal_2">
<path id="Rectangle 83" d="M318.082 251.981L331.506 265.382L291.133 305.683C287.677 309.133 282.074 309.133 278.618 305.683L277.709 304.776C274.253 301.326 274.253 295.733 277.709 292.283L318.082 251.981Z" fill="#E3783E"/>
<path id="Rectangle 84" d="M309.852 230.254C308.929 227.727 309.552 224.895 311.451 222.987L346.049 188.205C349.748 184.487 355.769 184.476 359.482 188.181L360.26 188.958C361.33 190.027 362.129 191.335 362.589 192.775L368.048 209.859C368.965 212.729 371.197 214.992 374.057 215.953L392.145 222.029C393.381 222.444 394.514 223.116 395.471 224C399.317 227.557 399.422 233.596 395.701 237.283L360.631 272.045C358.899 273.762 356.331 274.33 354.035 273.504L332.03 265.591C331.607 265.439 331.195 265.256 330.797 265.046L324.987 261.966C323.344 261.095 321.993 259.76 321.104 258.128L318.187 252.773C317.962 252.361 317.769 251.933 317.608 251.493L309.852 230.254Z" fill="#E3783E"/>
</g>
</g>
</g>
</g>
</svg>
