<svg width="291" height="325" viewBox="0 0 291 325" fill="none" xmlns="http://www.w3.org/2000/svg">
<g id="home_img">
<g id="portraits">
<rect id="Rectangle 69" x="4.06993" y="6.10118" width="59.6923" height="98.0778" fill="#FCF2EC" stroke="#F9E4D8" stroke-width="8.13986"/>
<rect id="Rectangle 70" x="79.3629" y="4.06993" width="149.909" height="74.3987" fill="#FCF2EC" stroke="#F9E4D8" stroke-width="8.13986"/>
<rect id="Rectangle 71" x="112.914" y="94.8063" width="104.345" height="110.441" fill="#FCF2EC" stroke="#F9E4D8" stroke-width="8.13986"/>
</g>
<path id="Rectangle 73" d="M130.258 156.958L149.251 163.385V225.289H130.258V156.958Z" fill="#F7D7C5"/>
<g id="display">
<path id="Vector 54" d="M142.449 196.197L145.841 197.55M142.449 198.904L145.841 200.257M142.449 201.61L145.841 202.963" stroke="#F9E4D8" stroke-width="0.678322"/>
<path id="Vector 53" d="M132.953 195.521L136.345 196.874M132.953 198.227L136.345 199.58M132.953 200.933L136.345 202.287" stroke="#F9E4D8" stroke-width="0.678322"/>
<path id="Vector 52" d="M134.988 166.428L144.146 168.797" stroke="#F9E4D8" stroke-width="0.678322"/>
<g id="africa_globe">
<g id="Ellipse 12">
<mask id="path-8-inside-1" fill="white">
<ellipse cx="139.4" cy="182.913" rx="5.08741" ry="9.2247"/>
</mask>
<ellipse cx="139.4" cy="182.913" rx="5.08741" ry="9.2247" fill="#F9E4D8"/>
<path d="M137.026 182.913C137.026 184.445 136.667 185.463 136.463 185.833C136.367 186.008 136.437 185.801 136.839 185.492C137.289 185.147 138.177 184.676 139.4 184.676V199.599C144.773 199.599 148.039 195.744 149.531 193.039C151.168 190.07 151.949 186.476 151.949 182.913H137.026ZM139.4 184.676C140.623 184.676 141.511 185.147 141.96 185.492C142.363 185.801 142.433 186.008 142.336 185.833C142.133 185.463 141.774 184.445 141.774 182.913H126.851C126.851 186.476 127.631 190.07 129.269 193.039C130.76 195.744 134.027 199.599 139.4 199.599V184.676ZM141.774 182.913C141.774 181.381 142.133 180.363 142.336 179.994C142.433 179.818 142.363 180.025 141.96 180.334C141.511 180.679 140.623 181.15 139.4 181.15V166.227C134.027 166.227 130.76 170.082 129.269 172.787C127.631 175.756 126.851 179.351 126.851 182.913H141.774ZM139.4 181.15C138.177 181.15 137.289 180.679 136.839 180.334C136.437 180.025 136.367 179.818 136.463 179.994C136.667 180.363 137.026 181.381 137.026 182.913H151.949C151.949 179.351 151.168 175.756 149.531 172.787C148.039 170.082 144.773 166.227 139.4 166.227V181.15Z" fill="#F9E4D8" mask="url(#path-8-inside-1)"/>
</g>
<path id="rectangle 3" d="M142.691 182.924C142.691 182.924 142.691 182.56 142.758 182.488C142.825 182.415 142.848 182.379 142.982 182.488C143.116 182.597 143.049 183.214 143.049 183.214V184.014H142.87V184.232H142.691V184.014H142.556V183.723H142.469V183.412L142.538 183.282L142.556 182.924H142.691Z" fill="#FCF2EC"/>
<path id="rectangle 2" d="M138.916 173.194C138.916 173.194 140.948 173.618 141.979 174.887C143.01 176.157 143.613 177.478 143.613 177.478L143.071 177.691V177.956H142.828V178.432H142.646V178.855V180.284H142.404V180.76H142.191V181.183V181.501H141.979V181.871H141.736V182.294V182.664H141.524V182.929H140.857V182.559H140.675V181.871H140.432V178.855H140.19V178.432H140.008V177.691H139.795V177.321H139.371V177.691H138.461V177.321H138.279V176.792H137.976V176.051H137.824V175.416L137.976 175.311V174.887H138.279V174.517H138.461V174.2H138.673V173.353H138.916V173.194Z" fill="#FCF2EC"/>
</g>
</g>
<g id="human drawing">
<g id="Head/Front/Curly">
<g id="Head">
<path id="Vector" fill-rule="evenodd" clip-rule="evenodd" d="M229.095 125.495C232.22 121.835 234.336 117.351 233.982 112.326C232.964 97.8471 212.757 101.032 208.826 108.34C204.895 115.647 205.362 134.184 210.442 135.49C212.468 136.011 216.784 134.735 221.177 132.094L218.419 151.549H234.699L229.095 125.495Z" fill="#B28B67"/>
</g>
<path id="hair" fill-rule="evenodd" clip-rule="evenodd" d="M201.615 98.2091C201.952 97.0272 202.859 96.0152 204.081 95.715C204.377 95.6422 204.683 95.6128 204.988 95.625C205.098 95.6294 205.128 95.6609 205.18 95.5846C205.217 95.528 205.218 95.3898 205.234 95.3234C205.282 95.1167 205.343 94.9126 205.418 94.7137C205.674 94.0356 206.103 93.4354 206.621 92.9298C207.59 91.984 208.899 91.3312 210.26 91.2131C211.004 91.1485 211.743 91.2691 212.447 91.5107C212.811 91.6357 213.164 91.7914 213.508 91.9635C213.612 92.0153 213.948 92.2691 214.052 92.2526C214.167 92.2345 214.398 91.9499 214.491 91.8784C215.645 90.9953 217.07 90.648 218.508 90.6584C220.13 90.6706 221.693 90.7515 223.046 91.738C223.333 91.9469 223.605 92.1756 223.865 92.4163C224.002 92.5431 224.134 92.6746 224.261 92.8116C224.337 92.8942 224.411 92.9787 224.483 93.0655C224.604 93.2128 224.585 93.2612 224.754 93.1584C225.406 92.7638 226.16 92.5792 226.92 92.6724C227.372 92.7278 227.811 92.8629 228.228 93.0408C228.37 93.1014 228.698 93.3429 228.85 93.3453C229 93.3476 229.324 93.1237 229.479 93.0668C230.314 92.7593 231.214 92.6835 232.092 92.8256C232.997 92.9722 233.887 93.3325 234.654 93.8304C235.023 94.07 235.345 94.3354 235.604 94.6915C235.715 94.8453 235.816 95.0079 235.943 95.1505C236.017 95.234 236.163 95.3197 236.203 95.4253C236.179 95.3621 237.194 94.9721 237.289 94.9472C237.799 94.8144 238.318 94.8413 238.817 95.0052C239.756 95.3133 240.563 96.0043 241.227 96.7128C241.568 97.0766 241.866 97.4789 242.119 97.9074C242.24 98.1127 242.351 98.3238 242.453 98.5394C242.502 98.6439 242.535 98.7746 242.599 98.8687C242.683 98.9899 242.739 98.9922 242.89 99.0451C243.659 99.3135 244.359 99.7679 244.892 100.382C245.432 101.003 245.782 101.768 245.929 102.574C245.937 102.621 245.942 102.818 245.97 102.843C246.008 102.879 246.163 102.863 246.221 102.87C246.424 102.894 246.625 102.929 246.823 102.976C247.188 103.062 247.544 103.189 247.881 103.355C249.193 104.003 250.131 105.216 250.59 106.582C251.072 108.015 251.063 109.657 250.487 111.064C250.394 111.291 250.284 111.511 250.154 111.72C250.074 111.848 250.048 111.848 250.1 111.983C250.158 112.132 250.263 112.277 250.332 112.423C250.556 112.9 250.712 113.406 250.811 113.922C250.973 114.769 251.053 115.659 250.894 116.512C250.819 116.908 250.69 117.296 250.492 117.649C250.392 117.829 250.274 117.999 250.141 118.157C250.072 118.239 249.999 118.317 249.922 118.392C249.878 118.435 249.821 118.473 249.783 118.52C249.692 118.637 249.673 118.541 249.72 118.713C249.786 118.952 249.934 119.188 250.026 119.421C250.12 119.662 250.204 119.905 250.282 120.151C250.439 120.649 250.572 121.156 250.655 121.671C250.815 122.661 250.787 123.716 250.317 124.625C250.117 125.013 249.829 125.354 249.479 125.62C249.308 125.749 249.123 125.861 248.929 125.953C248.829 126 248.702 126.021 248.656 126.117C248.607 126.22 248.68 126.426 248.697 126.542C248.841 127.549 248.913 128.606 248.613 129.592C248.337 130.501 247.728 131.304 246.938 131.835C245.405 132.866 243.339 132.807 241.729 131.982C241.309 131.767 241.156 132.581 240.806 132.266C239.914 133.464 237.838 132.345 236.534 132.004C234.91 131.579 233.606 130.452 232.855 128.972C231.828 130.219 229.673 129.814 228.961 128.461C228.787 128.13 228.683 127.766 228.632 127.396C228.606 127.202 228.623 127.006 228.603 126.814C228.577 126.568 228.412 126.33 228.318 126.092C228.134 125.63 228.02 125.153 228.015 124.655C228.012 124.394 228.045 124.141 228.07 123.883C228.092 123.65 228.028 123.434 227.991 123.204C228.408 123.273 228.915 123.161 229.308 123.04C229.693 122.922 230.054 122.611 230.326 122.326C230.957 121.666 231.343 120.8 231.606 119.938C232.185 118.047 231.948 115.778 230.041 114.74C229.152 114.257 226.491 114.258 225.433 114.497C224.32 114.749 223.059 117.197 222.997 117.427C222.958 117.57 222.978 117.746 222.846 117.841C222.558 118.05 222.082 117.688 221.87 117.509C221.503 117.2 221.241 116.79 221.014 116.374C220.52 115.467 220.122 114.495 219.841 113.503C219.624 112.738 219.485 111.949 219.202 111.204C218.92 110.462 218.475 109.799 217.784 109.379C217.032 108.922 216.169 108.681 215.344 108.394C214.525 108.109 213.721 107.761 213.087 107.157C212.947 107.024 212.812 106.883 212.7 106.726C212.611 106.603 212.523 106.366 212.388 106.288C212.178 106.166 211.872 106.483 211.69 106.598C210.795 107.165 210.047 107.957 209.445 108.821C208.845 109.681 208.354 110.508 207.954 111.468C207.658 112.18 207.473 113.092 206.951 113.676C206.718 113.936 204.988 114.094 204.428 113.866C203.868 113.639 203.24 113.048 203.051 112.678C202.859 112.299 202.813 111.883 202.895 111.468C202.944 111.224 203.042 110.996 203.096 110.757C203.142 110.555 203.183 110.365 203.282 110.181C203.468 109.831 203.786 109.58 204.169 109.475C203.77 109.108 203.439 108.669 203.21 108.178C202.973 107.668 202.771 107.047 202.714 106.487C202.667 106.033 202.739 105.562 202.989 105.171C203.251 104.761 203.714 104.493 204.116 104.238C203.503 103.759 202.978 103.178 202.547 102.534C201.708 101.281 201.189 99.7023 201.615 98.2091Z" fill="#723C1F"/>
</g>
<g id="Pants">
<g id="sit">
<path id="Seat" fill-rule="evenodd" clip-rule="evenodd" d="M280.147 236.115H202.14C196.146 236.115 191.287 240.962 191.287 246.94V309.182C191.287 315.16 196.146 320.007 202.14 320.007H280.147C286.141 320.007 291 315.16 291 309.182V246.94C291 240.962 286.141 236.115 280.147 236.115ZM269.294 255.059C270.792 255.059 272.007 256.27 272.007 257.765V298.357C272.007 299.852 270.792 301.064 269.294 301.064H212.993C211.494 301.064 210.28 299.852 210.28 298.357V257.765C210.28 256.27 211.494 255.059 212.993 255.059H269.294Z" fill="#E3783E"/>
</g>
<path id="Skin" fill-rule="evenodd" clip-rule="evenodd" d="M142.78 317.747C151.471 298.561 157.757 281.855 160.28 273.041C164.6 257.949 167.886 244.669 168.717 239.709C170.697 227.883 153.48 227.194 151.204 233.072C147.76 241.967 141.747 271.195 134.521 315.343L142.78 317.747ZM243.593 257.537C235.619 254.393 207.694 244.555 194.226 241.772C190.355 240.972 186.604 240.229 183.077 239.557C172.595 237.561 167.164 256.423 177.26 257.872C202.403 261.481 238.048 265.208 241.099 265.627C245.374 266.213 248.605 259.512 243.593 257.537Z" fill="#B28B67"/>
<path id="Leg Back" fill-rule="evenodd" clip-rule="evenodd" d="M176.641 234.368L219.773 212.469V207.701H214.644C172.915 218.307 151.592 225.103 150.674 228.091C150.664 228.123 150.655 228.155 150.647 228.187C150.626 228.215 150.605 228.243 150.585 228.27C142.315 239.614 137.362 294.994 135.737 299.14L151.583 301.498C157.645 279.079 177.039 263.461 176.524 236.609C176.663 235.822 176.698 235.075 176.641 234.368Z" fill="#F1BC9F"/>
<path id="Leg Front" fill-rule="evenodd" clip-rule="evenodd" d="M216.193 247.375C220.139 246.587 223.773 245.884 226.883 245.34C246.971 241.825 252.828 231.101 249.365 207.701H212.354C206.309 209.433 174.889 222.575 158.587 229.565C147.798 234.191 151.199 250.868 157.309 255.209C157.342 255.475 157.452 255.656 157.648 255.737C190.516 269.324 216.517 262.195 225.203 264.472L229.22 251.832L216.193 247.375Z" fill="#F4C9B2"/>
<g id="shoe">
<path id="left" fill-rule="evenodd" clip-rule="evenodd" d="M146.733 314.19C147.492 316.21 147.871 317.722 147.871 318.725C147.871 319.945 147.667 321.725 147.26 324.066C145.841 324.066 133.088 324.066 109.001 324.066C108.007 320.788 108.581 319.018 110.723 318.757C112.865 318.495 114.644 318.259 116.061 318.049L133.843 310.142C134.186 309.99 134.587 310.143 134.739 310.484C134.742 310.49 134.744 310.496 134.747 310.502L135.89 313.267C137.873 314.19 139.484 314.652 140.724 314.652C141.731 314.652 143.122 314.246 144.897 313.434L144.897 313.434C145.578 313.123 146.383 313.421 146.696 314.1C146.709 314.13 146.721 314.159 146.733 314.19Z" fill="#E4E4E4"/>
<path id="right" fill-rule="evenodd" clip-rule="evenodd" d="M243.301 255.603C245.456 255.714 246.993 255.964 247.912 256.353C249.029 256.826 250.578 257.698 252.559 258.967C251.99 260.226 246.879 271.537 237.225 292.9C233.824 292.51 232.432 291.315 233.052 289.313C233.671 287.312 234.168 285.642 234.543 284.304L234.428 265.464C234.425 265.102 234.727 264.806 235.1 264.803C235.107 264.803 235.113 264.803 235.119 264.803L238.111 264.862C239.751 263.461 240.819 262.211 241.316 261.112C241.72 260.218 241.906 258.827 241.874 256.938L241.874 256.938C241.861 256.213 242.457 255.615 243.205 255.601C243.237 255.601 243.269 255.601 243.301 255.603Z" fill="#E4E4E4"/>
</g>
</g>
<g id="Body/Jacket">
<path id="Skin_2" fill-rule="evenodd" clip-rule="evenodd" d="M182.718 196.199L164.374 214.889C159.036 217.267 154.663 219.892 151.254 222.765C150.487 223.731 149.653 225.582 153.26 224.754C156.867 223.926 160.696 223.224 161.374 224.449C162.052 225.674 160.055 227.552 161.308 229.155C162.143 230.224 164.952 226.824 169.735 218.955L188.81 207.209L182.718 196.199ZM264.139 198.835L250.607 198.891C258.962 227.061 263.473 242.008 264.139 243.732C265.637 247.61 262.467 253.517 261.111 256.691C265.527 258.755 265.056 251.111 270.628 253.818C275.713 256.289 279.581 260.766 285.456 256.98C286.178 256.514 286.97 254.762 285.057 253.392C280.293 249.98 273.427 244.009 272.499 242.043C271.234 239.363 268.447 224.96 264.139 198.835Z" fill="#B28B67"/>
<path id="Vector 46" d="M161.44 229.348C160.27 228.57 161.101 226.642 161.44 225.627H165.509C164.492 227.093 162.254 229.89 161.44 229.348Z" fill="#F1BC9F"/>
<path id="Coat Back" fill-rule="evenodd" clip-rule="evenodd" d="M225.409 140.27L219.544 139.267C209.444 164.429 191.812 187.292 166.648 207.856L185.662 230.896C210.823 201.616 226.334 171.407 225.409 140.27Z" fill="#F4C9B2"/>
<path id="Shirt" fill-rule="evenodd" clip-rule="evenodd" d="M250.977 213.788H198.746C210.846 184.443 216.897 159.515 216.897 139.003L232.652 136.662C245.035 156.524 248.531 180.979 250.977 213.788Z" fill="#FCF2EC"/>
<path id="Coat Front" fill-rule="evenodd" clip-rule="evenodd" d="M232.549 147.496C232.547 147.493 232.545 147.489 232.543 147.485H231.515C230.284 147.528 228.41 147.604 225.891 147.714L222.084 158.565C221.682 171.795 219.33 198.458 215.029 238.552H249.267C249.178 241.322 249.03 244.117 248.823 246.938H274.281C270.473 204.088 256.567 170.937 232.562 147.485L232.549 147.496V147.496Z" fill="#F7D7C5"/>
<path id="Shade" fill-rule="evenodd" clip-rule="evenodd" d="M247.443 192.296C246.469 209.558 244.029 221.458 240.124 227.996H249.696C250.115 215.576 249.364 203.676 247.443 192.296Z" fill="black" fill-opacity="0.1"/>
<path id="Light" fill-rule="evenodd" clip-rule="evenodd" d="M242.086 207.025L225.203 199.196V207.025H242.086Z" fill="white" fill-opacity="0.2"/>
</g>
<path id="Vector 47" d="M164.492 226.98L160.762 228.672L161.44 229.687L162.458 229.349L163.475 228.672L164.492 226.98Z" fill="#F4C9B2"/>
</g>
<rect id="Rectangle 74" x="0.340589" y="0.337735" width="52.9091" height="4.73459" transform="matrix(0.999991 -0.00419616 0.00421822 0.999991 130.311 225.121)" stroke="#F7D7C5" stroke-width="0.678322"/>
</g>
</svg>
