<svg width="60" height="60" viewBox="0 0 60 60" fill="none" xmlns="http://www.w3.org/2000/svg">
<circle cx="30" cy="30" r="29.23" stroke="#F9E4D8" stroke-width="1.54"/>
<path d="M35 20.8975H25C22.2386 20.8975 20 23.136 20 25.8975V35.8975C20 38.6589 22.2386 40.8975 25 40.8975H35C37.7614 40.8975 40 38.6589 40 35.8975V25.8975C40 23.136 37.7614 20.8975 35 20.8975Z" stroke="#2D180C" stroke-linecap="round" stroke-linejoin="round"/>
<path d="M33.9567 30.3107C34.0801 31.143 33.938 31.9929 33.5505 32.7397C33.163 33.4865 32.5499 34.0921 31.7984 34.4704C31.0468 34.8487 30.1952 34.9803 29.3645 34.8467C28.5339 34.713 27.7665 34.3208 27.1716 33.7259C26.5767 33.131 26.1845 32.3636 26.0508 31.5329C25.9171 30.7023 26.0488 29.8506 26.4271 29.0991C26.8053 28.3476 27.4109 27.7345 28.1577 27.347C28.9045 26.9595 29.7545 26.8173 30.5867 26.9407C31.4357 27.0666 32.2216 27.4622 32.8284 28.069C33.4353 28.6759 33.8308 29.4618 33.9567 30.3107Z" stroke="#2D180C" stroke-linecap="round" stroke-linejoin="round"/>
<path d="M34.875 25.0967H34.8884" stroke="#2D180C" stroke-linecap="round" stroke-linejoin="round"/>
</svg>
