<svg width="60" height="60" viewBox="0 0 60 60" fill="none" xmlns="http://www.w3.org/2000/svg">
<circle cx="30" cy="30" r="29.23" stroke="#F9E4D8" stroke-width="1.54"/>
<path d="M42 20.7567C40.9989 21.472 39.8904 22.019 38.7173 22.3768C38.0876 21.6436 37.2508 21.1238 36.3201 20.888C35.3893 20.6521 34.4095 20.7114 33.5131 21.0579C32.6167 21.4045 31.847 22.0215 31.3081 22.8255C30.7692 23.6295 30.4871 24.5817 30.5 25.5534V26.6123C28.6628 26.6605 26.8422 26.2478 25.2006 25.4109C23.559 24.574 22.1471 23.3389 21.0909 21.8156C21.0909 21.8156 16.9091 31.3454 26.3182 35.5809C24.1651 37.0612 21.6002 37.8034 19 37.6986C28.4091 42.993 39.9091 37.6986 39.9091 25.5216C39.9081 25.2267 39.8801 24.9325 39.8255 24.6428C40.8924 23.577 41.6454 22.2314 42 20.7567Z" stroke="#2D180C" stroke-linecap="round" stroke-linejoin="round"/>
</svg>
