<svg width="602" height="458" viewBox="0 0 602 458" fill="none" xmlns="http://www.w3.org/2000/svg">
<g id="leaves">
<g id="Vector">
<path d="M404.587 258.238C404.587 258.238 397.202 222.544 379.97 222.544C366.842 210.236 345.754 174.296 366.431 129.002C387.109 83.7084 400.484 67.4616 404.587 65C407.049 70.3335 417.636 90.6009 440.283 129.002C462.93 167.404 442.332 207.364 429.203 222.544C410.741 222.544 407.048 260.7 404.587 258.238Z" fill="white"/>
<path d="M406.762 260.308C406.762 260.308 442.456 252.923 442.456 235.692C454.764 222.563 490.704 201.475 535.998 222.153C581.292 242.83 597.538 256.205 600 260.308C594.666 262.77 574.399 273.357 535.998 296.004C497.596 318.651 457.636 298.054 442.456 284.924C442.456 266.462 404.3 262.77 406.762 260.308Z" fill="white"/>
<path d="M404.755 262.154C404.755 262.154 412.139 297.848 429.371 297.848C442.5 310.156 463.588 346.095 442.91 391.389C422.232 436.683 408.857 452.93 404.755 455.392C402.292 450.058 391.706 429.791 369.059 391.389C346.412 352.988 367.009 313.028 380.138 297.848C398.601 297.848 402.293 259.692 404.755 262.154Z" fill="white"/>
<path d="M402.238 260.863C402.238 260.863 366.544 268.248 366.544 285.479C354.236 298.608 318.296 319.696 273.002 299.018C227.708 278.34 211.462 264.966 209 260.863C214.334 258.4 234.601 247.814 273.002 225.167C311.404 202.52 351.364 223.117 366.544 236.247C366.544 254.709 404.699 258.401 402.238 260.863Z" fill="white"/>
<path d="M404.587 258.238C404.587 258.238 397.202 222.544 379.97 222.544C366.842 210.236 345.754 174.296 366.431 129.002C387.109 83.7084 400.484 67.4616 404.587 65C407.049 70.3335 417.636 90.6009 440.283 129.002C462.93 167.404 442.332 207.364 429.203 222.544C410.741 222.544 407.048 260.7 404.587 258.238Z" stroke="#FCF2EC" stroke-width="2.46163"/>
<path d="M406.762 260.308C406.762 260.308 442.456 252.923 442.456 235.692C454.764 222.563 490.704 201.475 535.998 222.153C581.292 242.83 597.538 256.205 600 260.308C594.666 262.77 574.399 273.357 535.998 296.004C497.596 318.651 457.636 298.054 442.456 284.924C442.456 266.462 404.3 262.77 406.762 260.308Z" stroke="#FCF2EC" stroke-width="2.46163"/>
<path d="M404.755 262.154C404.755 262.154 412.139 297.848 429.371 297.848C442.5 310.156 463.588 346.095 442.91 391.389C422.232 436.683 408.857 452.93 404.755 455.392C402.292 450.058 391.706 429.791 369.059 391.389C346.412 352.988 367.009 313.028 380.138 297.848C398.601 297.848 402.293 259.692 404.755 262.154Z" stroke="#FCF2EC" stroke-width="2.46163"/>
<path d="M402.238 260.863C402.238 260.863 366.544 268.248 366.544 285.479C354.236 298.608 318.296 319.696 273.002 299.018C227.708 278.34 211.462 264.966 209 260.863C214.334 258.4 234.601 247.814 273.002 225.167C311.404 202.52 351.364 223.117 366.544 236.247C366.544 254.709 404.699 258.401 402.238 260.863Z" stroke="#FCF2EC" stroke-width="2.46163"/>
</g>
<g id="Vector_2">
<path d="M284.587 226.238C284.587 226.238 277.202 190.544 259.97 190.544C246.842 178.236 225.754 142.296 246.431 97.0024C267.109 51.7084 280.484 35.4616 284.587 33C287.049 38.3335 297.636 58.6009 320.283 97.0024C342.93 135.404 322.332 175.364 309.203 190.544C290.741 190.544 287.048 228.7 284.587 226.238Z" fill="white"/>
<path d="M286.762 228.308C286.762 228.308 322.456 220.923 322.456 203.692C334.764 190.563 370.704 169.475 415.998 190.153C461.292 210.83 477.538 224.205 480 228.308C474.666 230.77 454.399 241.357 415.998 264.004C377.596 286.651 337.636 266.054 322.456 252.924C322.456 234.462 284.3 230.77 286.762 228.308Z" fill="white"/>
<path d="M284.755 230.154C284.755 230.154 292.139 265.848 309.371 265.848C322.5 278.156 343.588 314.095 322.91 359.389C302.232 404.683 288.857 420.93 284.755 423.392C282.292 418.058 271.706 397.791 249.059 359.389C226.412 320.988 247.009 281.028 260.138 265.848C278.601 265.848 282.293 227.692 284.755 230.154Z" fill="white"/>
<path d="M282.238 228.863C282.238 228.863 246.544 236.248 246.544 253.479C234.236 266.608 198.296 287.696 153.002 267.018C107.708 246.34 91.4616 232.966 89 228.863C94.3335 226.4 114.601 215.814 153.002 193.167C191.404 170.52 231.364 191.117 246.544 204.247C246.544 222.709 284.699 226.401 282.238 228.863Z" fill="white"/>
<path d="M284.587 226.238C284.587 226.238 277.202 190.544 259.97 190.544C246.842 178.236 225.754 142.296 246.431 97.0024C267.109 51.7084 280.484 35.4616 284.587 33C287.049 38.3335 297.636 58.6009 320.283 97.0024C342.93 135.404 322.332 175.364 309.203 190.544C290.741 190.544 287.048 228.7 284.587 226.238Z" stroke="#FCF2EC" stroke-width="2.46163"/>
<path d="M286.762 228.308C286.762 228.308 322.456 220.923 322.456 203.692C334.764 190.563 370.704 169.475 415.998 190.153C461.292 210.83 477.538 224.205 480 228.308C474.666 230.77 454.399 241.357 415.998 264.004C377.596 286.651 337.636 266.054 322.456 252.924C322.456 234.462 284.3 230.77 286.762 228.308Z" stroke="#FCF2EC" stroke-width="2.46163"/>
<path d="M284.755 230.154C284.755 230.154 292.139 265.848 309.371 265.848C322.5 278.156 343.588 314.095 322.91 359.389C302.232 404.683 288.857 420.93 284.755 423.392C282.292 418.058 271.706 397.791 249.059 359.389C226.412 320.988 247.009 281.028 260.138 265.848C278.601 265.848 282.293 227.692 284.755 230.154Z" stroke="#FCF2EC" stroke-width="2.46163"/>
<path d="M282.238 228.863C282.238 228.863 246.544 236.248 246.544 253.479C234.236 266.608 198.296 287.696 153.002 267.018C107.708 246.34 91.4616 232.966 89 228.863C94.3335 226.4 114.601 215.814 153.002 193.167C191.404 170.52 231.364 191.117 246.544 204.247C246.544 222.709 284.699 226.401 282.238 228.863Z" stroke="#FCF2EC" stroke-width="2.46163"/>
</g>
<g id="Vector_3">
<path d="M194.587 163.238C194.587 163.238 187.202 127.544 169.97 127.544C156.842 115.236 135.754 79.2963 156.431 34.0024C177.109 -11.2916 200.897 -2.03837 205 -4.5C207.462 0.83353 207.636 -4.39906 230.283 34.0024C252.93 72.4038 232.332 112.364 219.203 127.544C200.741 127.544 197.048 165.7 194.587 163.238Z" fill="white"/>
<path d="M196.762 165.308C196.762 165.308 232.456 157.923 232.456 140.692C244.764 127.563 280.704 106.475 325.998 127.153C371.292 147.83 387.538 161.205 390 165.308C384.666 167.77 364.399 178.357 325.998 201.004C287.596 223.651 247.636 203.054 232.456 189.924C232.456 171.462 194.3 167.77 196.762 165.308Z" fill="white"/>
<path d="M194.755 167.154C194.755 167.154 202.139 202.848 219.371 202.848C232.5 215.156 253.588 251.095 232.91 296.389C212.232 341.683 198.857 357.93 194.755 360.392C192.292 355.058 181.706 334.791 159.059 296.389C136.412 257.988 157.009 218.028 170.138 202.848C188.601 202.848 192.293 164.692 194.755 167.154Z" fill="white"/>
<path d="M192.238 165.863C192.238 165.863 156.544 173.248 156.544 190.479C144.236 203.608 108.296 224.696 63.0023 204.018C17.7084 183.34 1.46163 169.965 -1 165.863C4.33353 163.4 24.6009 152.814 63.0023 130.167C101.404 107.52 141.364 128.117 156.544 141.247C156.544 159.709 194.699 163.401 192.238 165.863Z" fill="white"/>
<path d="M194.587 163.238C194.587 163.238 187.202 127.544 169.97 127.544C156.842 115.236 135.754 79.2963 156.431 34.0024C177.109 -11.2916 200.897 -2.03837 205 -4.5C207.462 0.83353 207.636 -4.39906 230.283 34.0024C252.93 72.4038 232.332 112.364 219.203 127.544C200.741 127.544 197.048 165.7 194.587 163.238Z" stroke="#FCF2EC" stroke-width="2.46163"/>
<path d="M196.762 165.308C196.762 165.308 232.456 157.923 232.456 140.692C244.764 127.563 280.704 106.475 325.998 127.153C371.292 147.83 387.538 161.205 390 165.308C384.666 167.77 364.399 178.357 325.998 201.004C287.596 223.651 247.636 203.054 232.456 189.924C232.456 171.462 194.3 167.77 196.762 165.308Z" stroke="#FCF2EC" stroke-width="2.46163"/>
<path d="M194.755 167.154C194.755 167.154 202.139 202.848 219.371 202.848C232.5 215.156 253.588 251.095 232.91 296.389C212.232 341.683 198.857 357.93 194.755 360.392C192.292 355.058 181.706 334.791 159.059 296.389C136.412 257.988 157.009 218.028 170.138 202.848C188.601 202.848 192.293 164.692 194.755 167.154Z" stroke="#FCF2EC" stroke-width="2.46163"/>
<path d="M192.238 165.863C192.238 165.863 156.544 173.248 156.544 190.479C144.236 203.608 108.296 224.696 63.0023 204.018C17.7084 183.34 1.46163 169.965 -1 165.863C4.33353 163.4 24.6009 152.814 63.0023 130.167C101.404 107.52 141.364 128.117 156.544 141.247C156.544 159.709 194.699 163.401 192.238 165.863Z" stroke="#FCF2EC" stroke-width="2.46163"/>
</g>
<g id="Icons / flower">
<g id="humans / flower">
<path d="M87.5388 86.4876C87.5388 86.4876 84.2336 70.5121 76.5213 70.5121C70.6453 65.0034 61.207 48.9178 70.4617 28.6456C79.7164 8.37332 85.7026 1.10175 87.5388 0C88.6409 2.38713 93.3791 11.4582 103.515 28.6456C113.651 45.8329 104.433 63.718 98.5564 70.5121C90.2932 70.5121 88.6406 87.5893 87.5388 86.4876Z" fill="white"/>
<path d="M88.5125 87.414C88.5125 87.414 104.488 84.1088 104.488 76.3965C109.997 70.5205 126.082 61.0821 146.354 70.3369C166.627 79.5916 173.898 85.5778 175 87.414C172.613 88.5161 163.542 93.2543 146.354 103.39C129.167 113.527 111.282 104.308 104.488 98.4315C104.488 90.1684 87.4107 88.5158 88.5125 87.414Z" fill="white"/>
<path d="M87.614 88.2402C87.614 88.2402 90.9192 104.216 98.6315 104.216C104.507 109.724 113.946 125.81 104.691 146.082C95.4364 166.354 89.4502 173.626 87.614 174.728C86.5119 172.341 81.7737 163.27 71.6376 146.082C61.5014 128.895 70.7201 111.01 76.5964 104.216C84.8596 104.216 86.5122 87.1385 87.614 88.2402Z" fill="white"/>
<path d="M86.4875 87.6624C86.4875 87.6624 70.5121 90.9676 70.5121 98.6799C65.0034 104.556 48.9178 113.994 28.6456 104.74C8.37332 95.4848 1.10175 89.4986 0 87.6624C2.38713 86.5603 11.4582 81.8221 28.6456 71.686C45.8329 61.5499 63.718 70.7685 70.5121 76.6449C70.5121 84.908 87.5893 86.5606 86.4875 87.6624Z" fill="white"/>
<path d="M87.5388 86.4876C87.5388 86.4876 84.2336 70.5121 76.5213 70.5121C70.6453 65.0034 61.207 48.9178 70.4617 28.6456C79.7164 8.37332 85.7026 1.10175 87.5388 0C88.6409 2.38713 93.3791 11.4582 103.515 28.6456C113.651 45.8329 104.433 63.718 98.5564 70.5121C90.2932 70.5121 88.6406 87.5893 87.5388 86.4876Z" stroke="#FCF2EC" stroke-width="1.10175"/>
<path d="M88.5125 87.414C88.5125 87.414 104.488 84.1088 104.488 76.3965C109.997 70.5205 126.082 61.0821 146.354 70.3369C166.627 79.5916 173.898 85.5778 175 87.414C172.613 88.5161 163.542 93.2543 146.354 103.39C129.167 113.527 111.282 104.308 104.488 98.4315C104.488 90.1684 87.4107 88.5158 88.5125 87.414Z" stroke="#FCF2EC" stroke-width="1.10175"/>
<path d="M87.614 88.2402C87.614 88.2402 90.9192 104.216 98.6315 104.216C104.507 109.724 113.946 125.81 104.691 146.082C95.4364 166.354 89.4502 173.626 87.614 174.728C86.5119 172.341 81.7737 163.27 71.6376 146.082C61.5014 128.895 70.7201 111.01 76.5964 104.216C84.8596 104.216 86.5122 87.1385 87.614 88.2402Z" stroke="#FCF2EC" stroke-width="1.10175"/>
<path d="M86.4875 87.6624C86.4875 87.6624 70.5121 90.9676 70.5121 98.6799C65.0034 104.556 48.9178 113.994 28.6456 104.74C8.37332 95.4848 1.10175 89.4986 0 87.6624C2.38713 86.5603 11.4582 81.8221 28.6456 71.686C45.8329 61.5499 63.718 70.7685 70.5121 76.6449C70.5121 84.908 87.5893 86.5606 86.4875 87.6624Z" stroke="#FCF2EC" stroke-width="1.10175"/>
</g>
</g>
</g>
</svg>
