<svg width="120" height="112" viewBox="0 0 120 112" fill="none" xmlns="http://www.w3.org/2000/svg">
<ellipse cx="60" cy="56" rx="60" ry="56" fill="url(#paint0_linear)"/>
<path d="M20.5868 62.9609V49.9509H30.8175V52.0561H23.3107V55.3248H30.2543V57.4301H23.3107V60.8557H31.1961V62.9609H20.5868ZM38.2679 62.9609L35.941 59.3414L33.5957 62.9609H30.8349L34.4914 57.7994L31.0103 52.9703H33.8081L35.941 56.2389L38.0647 52.9703H40.881L37.3999 57.7717L41.0841 62.9609H38.2679ZM50.7782 57.9194C50.7782 59.5876 50.4427 60.8772 49.7717 61.7883C49.1069 62.6932 48.1651 63.1456 46.9463 63.1456C46.2445 63.1456 45.632 62.9948 45.1088 62.6932C44.5917 62.3854 44.1947 61.9452 43.9177 61.3728H43.8623C43.8992 61.5574 43.9177 62.1176 43.9177 63.0533V66.8852H41.3231V55.2694C41.3231 54.3276 41.2984 53.5612 41.2492 52.9703H43.7699C43.8007 53.0811 43.8253 53.2996 43.8438 53.6258C43.8684 53.9521 43.8808 54.2753 43.8808 54.5954H43.9177C44.5025 53.3704 45.5674 52.7579 47.1125 52.7579C48.2759 52.7579 49.1777 53.2073 49.8179 54.106C50.4581 54.9986 50.7782 56.2697 50.7782 57.9194ZM48.0728 57.9194C48.0728 55.6788 47.3864 54.5584 46.0137 54.5584C45.3243 54.5584 44.7949 54.8601 44.4255 55.4633C44.0623 56.0666 43.8808 56.9099 43.8808 57.9933C43.8808 59.0705 44.0623 59.9046 44.4255 60.4956C44.7949 61.0804 45.3181 61.3728 45.9952 61.3728C47.3803 61.3728 48.0728 60.2217 48.0728 57.9194ZM61.1463 57.9564C61.1463 59.5753 60.697 60.8465 59.7982 61.7698C58.8995 62.687 57.6561 63.1456 56.0679 63.1456C54.5105 63.1456 53.2886 62.6839 52.4022 61.7606C51.5158 60.8372 51.0726 59.5692 51.0726 57.9564C51.0726 56.3497 51.5158 55.0878 52.4022 54.1706C53.2886 53.2473 54.529 52.7856 56.1233 52.7856C57.7546 52.7856 58.998 53.2319 59.8536 54.1245C60.7154 55.0109 61.1463 56.2882 61.1463 57.9564ZM58.4317 57.9564C58.4317 56.7683 58.2378 55.9065 57.85 55.371C57.4622 54.8354 56.8989 54.5677 56.1602 54.5677C54.5844 54.5677 53.7964 55.6972 53.7964 57.9564C53.7964 59.0705 53.9873 59.92 54.3689 60.5048C54.7567 61.0835 55.3138 61.3728 56.0402 61.3728C57.6345 61.3728 58.4317 60.234 58.4317 57.9564ZM68.4582 62.9609V57.3562C68.4582 55.6018 67.8642 54.7246 66.6761 54.7246C66.0482 54.7246 65.5404 54.9955 65.1526 55.5372C64.7709 56.0727 64.5801 56.7622 64.5801 57.6055V62.9609H61.9855V55.2048C61.9855 54.6692 61.9762 54.2322 61.9578 53.8936C61.9455 53.5489 61.9301 53.2411 61.9116 52.9703H64.3862C64.4047 53.0872 64.4293 53.4012 64.4601 53.9121C64.4908 54.4168 64.5062 54.7646 64.5062 54.9555H64.5432C64.894 54.1922 65.3342 53.6382 65.8636 53.2934C66.3929 52.9487 67.0239 52.7764 67.7564 52.7764C68.8152 52.7764 69.6278 53.1026 70.1941 53.7551C70.7604 54.4076 71.0436 55.3617 71.0436 56.6175V62.9609H68.4582ZM76.4071 63.1456C74.9051 63.1456 73.751 62.7024 72.9446 61.816C72.1382 60.9234 71.735 59.6246 71.735 57.9194C71.735 56.2697 72.1443 55.0016 72.963 54.1152C73.7817 53.2288 74.9421 52.7856 76.4441 52.7856C77.8783 52.7856 78.9741 53.2627 79.7312 54.2168C80.4884 55.1648 80.8669 56.5559 80.8669 58.3903V58.4642H74.4589C74.4589 59.4368 74.6374 60.1724 74.9944 60.671C75.3576 61.1635 75.8716 61.4097 76.5364 61.4097C77.4536 61.4097 78.0322 61.0127 78.2723 60.2186L80.7192 60.431C80.0113 62.2407 78.5739 63.1456 76.4071 63.1456ZM76.4071 54.4199C75.7977 54.4199 75.3268 54.6323 74.9944 55.057C74.6682 55.4818 74.4958 56.0758 74.4773 56.8391H78.3554C78.3062 56.0327 78.1123 55.4295 77.7737 55.0293C77.4351 54.6231 76.9796 54.4199 76.4071 54.4199ZM88.0864 62.9609V57.3562C88.0864 55.6018 87.4924 54.7246 86.3044 54.7246C85.6765 54.7246 85.1686 54.9955 84.7808 55.5372C84.3992 56.0727 84.2083 56.7622 84.2083 57.6055V62.9609H81.6137V55.2048C81.6137 54.6692 81.6045 54.2322 81.586 53.8936C81.5737 53.5489 81.5583 53.2411 81.5399 52.9703H84.0144C84.0329 53.0872 84.0575 53.4012 84.0883 53.9121C84.1191 54.4168 84.1345 54.7646 84.1345 54.9555H84.1714C84.5223 54.1922 84.9624 53.6382 85.4918 53.2934C86.0212 52.9487 86.6522 52.7764 87.3847 52.7764C88.4435 52.7764 89.256 53.1026 89.8223 53.7551C90.3887 54.4076 90.6718 55.3617 90.6718 56.6175V62.9609H88.0864ZM94.5026 63.1271C93.7393 63.1271 93.1514 62.9209 92.739 62.5085C92.3266 62.0899 92.1204 61.459 92.1204 60.6156V54.7246H90.8554V52.9703H92.2496L93.0622 50.6249H94.6873V52.9703H96.5802V54.7246H94.6873V59.9139C94.6873 60.4002 94.7796 60.7603 94.9643 60.9942C95.149 61.222 95.4352 61.3358 95.823 61.3358C96.0262 61.3358 96.3155 61.2927 96.691 61.2066V62.8132C96.0508 63.0225 95.3213 63.1271 94.5026 63.1271Z" fill="white"/>
<path d="M20.5868 62.9609H19.4522V64.0956H20.5868V62.9609ZM20.5868 49.9509V48.8163H19.4522V49.9509H20.5868ZM30.8175 49.9509H31.9521V48.8163H30.8175V49.9509ZM30.8175 52.0561V53.1908H31.9521V52.0561H30.8175ZM23.3107 52.0561V50.9215H22.1761V52.0561H23.3107ZM23.3107 55.3248H22.1761V56.4594H23.3107V55.3248ZM30.2543 55.3248H31.3889V54.1902H30.2543V55.3248ZM30.2543 57.4301V58.5647H31.3889V57.4301H30.2543ZM23.3107 57.4301V56.2954H22.1761V57.4301H23.3107ZM23.3107 60.8557H22.1761V61.9903H23.3107V60.8557ZM31.1961 60.8557H32.3307V59.7211H31.1961V60.8557ZM31.1961 62.9609V64.0956H32.3307V62.9609H31.1961ZM21.7214 62.9609V49.9509H19.4522V62.9609H21.7214ZM20.5868 51.0855H30.8175V48.8163H20.5868V51.0855ZM29.6829 49.9509V52.0561H31.9521V49.9509H29.6829ZM30.8175 50.9215H23.3107V53.1908H30.8175V50.9215ZM22.1761 52.0561V55.3248H24.4453V52.0561H22.1761ZM23.3107 56.4594H30.2543V54.1902H23.3107V56.4594ZM29.1197 55.3248V57.4301H31.3889V55.3248H29.1197ZM30.2543 56.2954H23.3107V58.5647H30.2543V56.2954ZM22.1761 57.4301V60.8557H24.4453V57.4301H22.1761ZM23.3107 61.9903H31.1961V59.7211H23.3107V61.9903ZM30.0615 60.8557V62.9609H32.3307V60.8557H30.0615ZM31.1961 61.8263H20.5868V64.0956H31.1961V61.8263ZM38.2679 62.9609L37.3135 63.5745L37.6484 64.0956H38.2679V62.9609ZM35.941 59.3414L36.8954 58.7278L35.9448 57.2491L34.9888 58.7244L35.941 59.3414ZM33.5957 62.9609V64.0956H34.2125L34.5479 63.5779L33.5957 62.9609ZM30.8349 62.9609L29.909 62.3051L28.6407 64.0956H30.8349V62.9609ZM34.4914 57.7994L35.4172 58.4553L35.8859 57.7937L35.4118 57.1359L34.4914 57.7994ZM31.0103 52.9703V51.8356H28.7938L30.0899 53.6337L31.0103 52.9703ZM33.8081 52.9703L34.7583 52.3502L34.4225 51.8356H33.8081V52.9703ZM35.941 56.2389L34.9908 56.859L35.9431 58.3183L36.8925 56.8571L35.941 56.2389ZM38.0647 52.9703V51.8356H37.4489L37.1133 52.3521L38.0647 52.9703ZM40.881 52.9703L41.7996 53.6362L43.105 51.8356H40.881V52.9703ZM37.3999 57.7717L36.4813 57.1057L36.0035 57.7648L36.4748 58.4285L37.3999 57.7717ZM41.0841 62.9609V64.0956H43.2811L42.0093 62.3041L41.0841 62.9609ZM39.2223 62.3474L36.8954 58.7278L34.9866 59.9549L37.3135 63.5745L39.2223 62.3474ZM34.9888 58.7244L32.6435 62.344L34.5479 63.5779L36.8932 59.9584L34.9888 58.7244ZM33.5957 61.8263H30.8349V64.0956H33.5957V61.8263ZM31.7607 63.6168L35.4172 58.4553L33.5655 57.1435L29.909 62.3051L31.7607 63.6168ZM35.4118 57.1359L31.9307 52.3068L30.0899 53.6337L33.571 58.4629L35.4118 57.1359ZM31.0103 54.1049H33.8081V51.8356H31.0103V54.1049ZM32.8579 53.5903L34.9908 56.859L36.8912 55.6189L34.7583 52.3502L32.8579 53.5903ZM36.8925 56.8571L39.0162 53.5884L37.1133 52.3521L34.9896 55.6208L36.8925 56.8571ZM38.0647 54.1049H40.881V51.8356H38.0647V54.1049ZM39.9624 52.3043L36.4813 57.1057L38.3185 58.4377L41.7996 53.6362L39.9624 52.3043ZM36.4748 58.4285L40.1589 63.6178L42.0093 62.3041L38.3251 57.1149L36.4748 58.4285ZM41.0841 61.8263H38.2679V64.0956H41.0841V61.8263ZM49.7717 61.7883L48.8582 61.1154L48.8574 61.1165L49.7717 61.7883ZM45.1088 62.6932L44.5285 63.6681L44.5353 63.6722L44.5421 63.6761L45.1088 62.6932ZM43.9177 61.3728L44.939 60.8786L44.6291 60.2382H43.9177V61.3728ZM43.8623 61.3728V60.2382H42.4783L42.7497 61.5953L43.8623 61.3728ZM43.9177 66.8852V68.0198H45.0523V66.8852H43.9177ZM41.3231 66.8852H40.1884V68.0198H41.3231V66.8852ZM41.2492 52.9703V51.8356H40.0161L40.1185 53.0645L41.2492 52.9703ZM43.7699 52.9703L44.8632 52.6666L44.6324 51.8356H43.7699V52.9703ZM43.8438 53.6258L42.711 53.69L42.7116 53.7006L42.7124 53.7112L43.8438 53.6258ZM43.8808 54.5954H42.7461V55.73H43.8808V54.5954ZM43.9177 54.5954V55.73H44.6333L44.9416 55.0842L43.9177 54.5954ZM49.8179 54.106L48.8938 54.7643L48.8959 54.7673L49.8179 54.106ZM44.4255 55.4633L43.4578 54.8709L43.4535 54.8781L44.4255 55.4633ZM44.4255 60.4956L43.4588 61.0897L43.4662 61.1015L44.4255 60.4956ZM49.6436 57.9194C49.6436 59.4552 49.3319 60.4722 48.8582 61.1154L50.6853 62.4611C51.5535 61.2823 51.9128 59.7201 51.9128 57.9194H49.6436ZM48.8574 61.1165C48.4267 61.7026 47.8399 62.011 46.9463 62.011V64.2802C48.4903 64.2802 49.7871 63.6837 50.6861 62.4601L48.8574 61.1165ZM46.9463 62.011C46.4109 62.011 46.0002 61.8974 45.6755 61.7102L44.5421 63.6761C45.2639 64.0922 46.0782 64.2802 46.9463 64.2802V62.011ZM45.6891 61.7182C45.3741 61.5307 45.1251 61.263 44.939 60.8786L42.8963 61.867C43.2643 62.6275 43.8094 63.2401 44.5285 63.6681L45.6891 61.7182ZM43.9177 60.2382H43.8623V62.5074H43.9177V60.2382ZM42.7497 61.5953C42.7468 61.5808 42.7601 61.6734 42.7698 61.9688C42.7785 62.2309 42.7831 62.5909 42.7831 63.0533H45.0523C45.0523 62.58 45.0477 62.192 45.0378 61.894C45.0291 61.6292 45.0147 61.3494 44.9749 61.1503L42.7497 61.5953ZM42.7831 63.0533V66.8852H45.0523V63.0533H42.7831ZM43.9177 65.7506H41.3231V68.0198H43.9177V65.7506ZM42.4577 66.8852V55.2694H40.1884V66.8852H42.4577ZM42.4577 55.2694C42.4577 54.3121 42.4328 53.511 42.3799 52.876L40.1185 53.0645C40.1641 53.6115 40.1884 54.3431 40.1884 55.2694H42.4577ZM41.2492 54.1049H43.7699V51.8356H41.2492V54.1049ZM42.6767 53.2739C42.6703 53.2509 42.67 53.2438 42.673 53.2618C42.6756 53.2775 42.6795 53.3042 42.684 53.3443C42.6931 53.4253 42.7025 53.5388 42.711 53.69L44.9766 53.5617C44.9591 53.2514 44.9316 52.913 44.8632 52.6666L42.6767 53.2739ZM42.7124 53.7112C42.7349 54.0097 42.7461 54.3044 42.7461 54.5954H45.0154C45.0154 54.2462 45.0019 53.8945 44.9752 53.5405L42.7124 53.7112ZM43.8808 55.73H43.9177V53.4607H43.8808V55.73ZM44.9416 55.0842C45.1458 54.6565 45.4083 54.3804 45.7207 54.2008C46.042 54.016 46.488 53.8925 47.1125 53.8925V51.6233C46.1918 51.6233 45.3329 51.8061 44.5893 52.2337C43.8367 52.6666 43.2744 53.3093 42.8938 54.1066L44.9416 55.0842ZM47.1125 53.8925C47.9325 53.8925 48.4798 54.1831 48.8938 54.7643L50.742 53.4477C49.8757 52.2314 48.6193 51.6233 47.1125 51.6233V53.8925ZM48.8959 54.7673C49.3442 55.3923 49.6436 56.3944 49.6436 57.9194H51.9128C51.9128 56.145 51.572 54.6048 50.7399 53.4447L48.8959 54.7673ZM49.2074 57.9194C49.2074 56.7201 49.0303 55.63 48.5255 54.806C47.9651 53.8912 47.0734 53.4238 46.0137 53.4238V55.693C46.3267 55.693 46.4646 55.7858 46.5905 55.9914C46.772 56.2877 46.9382 56.8781 46.9382 57.9194H49.2074ZM46.0137 53.4238C44.917 53.4238 44.0269 53.9415 43.4579 54.8709L45.3932 56.0558C45.5629 55.7786 45.7316 55.693 46.0137 55.693V53.4238ZM43.4535 54.8781C42.9413 55.7288 42.7461 56.8059 42.7461 57.9933H45.0154C45.0154 57.014 45.1834 56.4044 45.3976 56.0485L43.4535 54.8781ZM42.7461 57.9933C42.7461 59.1738 42.941 60.247 43.4589 61.0897L45.3922 59.9015C45.1837 59.5623 45.0154 58.9673 45.0154 57.9933H42.7461ZM43.4662 61.1015C44.038 62.0068 44.9187 62.5074 45.9952 62.5074V60.2382C45.7175 60.2382 45.5517 60.1539 45.3848 59.8897L43.4662 61.1015ZM45.9952 62.5074C47.0707 62.5074 47.9665 62.0238 48.5256 61.0943C49.0293 60.2571 49.2074 59.1473 49.2074 57.9194H46.9382C46.9382 58.9938 46.77 59.6107 46.5811 59.9245C46.4478 60.1462 46.3048 60.2382 45.9952 60.2382V62.5074ZM59.7982 61.7698L60.6087 62.5639L60.6113 62.5612L59.7982 61.7698ZM52.4022 54.1706L53.2181 54.9591L53.2207 54.9564L52.4022 54.1706ZM59.8536 54.1245L59.0346 54.9096L59.0401 54.9154L59.8536 54.1245ZM54.3689 60.5048L53.4187 61.125L53.4264 61.1365L54.3689 60.5048ZM60.0117 57.9564C60.0117 59.3593 59.6282 60.3178 58.9852 60.9784L60.6113 62.5612C61.7658 61.3751 62.2809 59.7913 62.2809 57.9564H60.0117ZM58.9878 60.9757C58.3508 61.6258 57.4279 62.011 56.0679 62.011V64.2802C57.8842 64.2802 59.4482 63.7482 60.6087 62.5639L58.9878 60.9757ZM56.0679 62.011C54.7476 62.011 53.848 61.6283 53.2207 60.9748L51.5837 62.5463C52.7292 63.7395 54.2734 64.2802 56.0679 64.2802V62.011ZM53.2207 60.9748C52.5863 60.314 52.2072 59.356 52.2072 57.9564H49.9379C49.9379 59.7823 50.4452 61.3604 51.5837 62.5463L53.2207 60.9748ZM52.2072 57.9564C52.2072 56.5639 52.5857 55.6134 53.2181 54.9591L51.5863 53.3821C50.4459 54.5622 49.9379 56.1356 49.9379 57.9564H52.2072ZM53.2207 54.9564C53.843 54.3081 54.7572 53.9202 56.1233 53.9202V51.651C54.3008 51.651 52.7342 52.1864 51.5837 53.3849L53.2207 54.9564ZM56.1233 53.9202C57.5484 53.9202 58.4551 54.3051 59.0346 54.9096L60.6727 53.3393C59.5409 52.1586 57.9607 51.651 56.1233 51.651V53.9202ZM59.0401 54.9154C59.6325 55.5247 60.0117 56.4779 60.0117 57.9564H62.2809C62.2809 56.0985 61.7983 54.4971 60.6672 53.3335L59.0401 54.9154ZM59.5663 57.9564C59.5663 56.6963 59.3705 55.5362 58.7689 54.7055L56.931 56.0364C57.1051 56.2768 57.2971 56.8403 57.2971 57.9564H59.5663ZM58.7689 54.7055C58.1404 53.8375 57.2134 53.433 56.1602 53.433V55.7023C56.5844 55.7023 56.7839 55.8334 56.931 56.0364L58.7689 54.7055ZM56.1602 53.433C55.0633 53.433 54.0961 53.8493 53.4568 54.7657C52.8694 55.6078 52.6618 56.7298 52.6618 57.9564H54.9311C54.9311 56.9238 55.1174 56.3515 55.318 56.064C55.4667 55.8508 55.6814 55.7023 56.1602 55.7023V53.433ZM52.6618 57.9564C52.6618 59.171 52.8647 60.276 53.4188 61.1249L55.3191 59.8847C55.1098 59.564 54.9311 58.9701 54.9311 57.9564H52.6618ZM53.4264 61.1365C54.0354 62.0452 54.9548 62.5074 56.0402 62.5074V60.2382C55.6728 60.2382 55.478 60.1217 55.3114 59.8731L53.4264 61.1365ZM56.0402 62.5074C57.1448 62.5074 58.1188 62.0901 58.7633 61.1693C59.3562 60.3223 59.5663 59.1927 59.5663 57.9564H57.2971C57.2971 58.9976 57.1086 59.5762 56.9043 59.868C56.7517 60.086 56.5299 60.2382 56.0402 60.2382V62.5074ZM68.4582 62.9609H67.3236V64.0956H68.4582V62.9609ZM65.1526 55.5372L64.23 54.8767L64.2286 54.8787L65.1526 55.5372ZM64.5801 62.9609V64.0956H65.7147V62.9609H64.5801ZM61.9855 62.9609H60.8509V64.0956H61.9855V62.9609ZM61.9578 53.8936L60.8239 53.9341L60.8243 53.9448L60.8248 53.9554L61.9578 53.8936ZM61.9116 52.9703V51.8356H60.697L60.7796 53.0474L61.9116 52.9703ZM64.3862 52.9703L65.5069 52.7933L65.3557 51.8356H64.3862V52.9703ZM64.4601 53.9121L63.3275 53.9803L63.3275 53.9811L64.4601 53.9121ZM64.5062 54.9555H63.3716V56.0901H64.5062V54.9555ZM64.5432 54.9555V56.0901H65.2704L65.5741 55.4294L64.5432 54.9555ZM71.0436 62.9609V64.0956H72.1782V62.9609H71.0436ZM69.5928 62.9609V57.3562H67.3236V62.9609H69.5928ZM69.5928 57.3562C69.5928 56.3865 69.4351 55.4595 68.9521 54.7463C68.4157 53.9542 67.5931 53.59 66.6761 53.59V55.8592C66.8331 55.8592 66.9155 55.8878 66.9547 55.9071C66.9888 55.9239 67.0276 55.9513 67.0732 56.0187C67.1843 56.1827 67.3236 56.5715 67.3236 57.3562H69.5928ZM66.6761 53.59C65.6567 53.59 64.8156 54.0588 64.23 54.8767L66.0751 56.1977C66.2652 55.9322 66.4397 55.8592 66.6761 55.8592V53.59ZM64.2286 54.8787C63.6757 55.6545 63.4455 56.5928 63.4455 57.6055H65.7147C65.7147 56.9315 65.8661 56.491 66.0766 56.1957L64.2286 54.8787ZM63.4455 57.6055V62.9609H65.7147V57.6055H63.4455ZM64.5801 61.8263H61.9855V64.0956H64.5801V61.8263ZM63.1201 62.9609V55.2048H60.8509V62.9609H63.1201ZM63.1201 55.2048C63.1201 54.6589 63.1107 54.1992 63.0907 53.8318L60.8248 53.9554C60.8417 54.2652 60.8509 54.6795 60.8509 55.2048H63.1201ZM63.0917 53.8531C63.079 53.4993 63.0631 53.1789 63.0436 52.8931L60.7796 53.0474C60.7971 53.3033 60.8119 53.5985 60.8239 53.9341L63.0917 53.8531ZM61.9116 54.1049H64.3862V51.8356H61.9116V54.1049ZM63.2655 53.1472C63.265 53.1445 63.2675 53.161 63.2722 53.2078C63.2765 53.2509 63.2816 53.3085 63.2874 53.3822C63.2989 53.5294 63.3123 53.728 63.3275 53.9803L65.5926 53.8439C65.5632 53.3562 65.536 52.9773 65.5069 52.7933L63.2655 53.1472ZM63.3275 53.9811C63.3585 54.4884 63.3716 54.8038 63.3716 54.9555H65.6408C65.6408 54.7255 65.6232 54.3453 65.5926 53.843L63.3275 53.9811ZM64.5062 56.0901H64.5432V53.8209H64.5062V56.0901ZM65.5741 55.4294C65.8643 54.7981 66.183 54.4394 66.4827 54.2442L65.2444 52.3426C64.4854 52.8369 63.9238 53.5863 63.5122 54.4816L65.5741 55.4294ZM66.4827 54.2442C66.7999 54.0377 67.2078 53.911 67.7564 53.911V51.6417C66.84 51.6417 65.986 51.8598 65.2444 52.3426L66.4827 54.2442ZM67.7564 53.911C68.5671 53.911 69.0341 54.1497 69.3372 54.4988L71.051 53.0114C70.2214 52.0556 69.0633 51.6417 67.7564 51.6417V53.911ZM69.3372 54.4988C69.6582 54.8687 69.9089 55.5136 69.9089 56.6175H72.1782C72.1782 55.2099 71.8626 53.9465 71.051 53.0114L69.3372 54.4988ZM69.9089 56.6175V62.9609H72.1782V56.6175H69.9089ZM71.0436 61.8263H68.4582V64.0956H71.0436V61.8263ZM72.9446 61.816L72.1026 62.5766L72.1053 62.5795L72.9446 61.816ZM79.7312 54.2168L78.8424 54.9221L78.8447 54.9249L79.7312 54.2168ZM80.8669 58.4642V59.5988H82.0015V58.4642H80.8669ZM74.4589 58.4642V57.3296H73.3242V58.4642H74.4589ZM74.9944 60.671L74.0719 61.3316L74.0765 61.3381L74.0813 61.3445L74.9944 60.671ZM78.2723 60.2186L78.3704 59.0882L77.4528 59.0086L77.1862 59.8902L78.2723 60.2186ZM80.7192 60.431L81.7758 60.8443L82.3284 59.4317L80.8173 59.3006L80.7192 60.431ZM74.9944 55.057L74.1009 54.3577L74.0946 54.3659L74.9944 55.057ZM74.4773 56.8391L73.343 56.8117L73.3149 57.9737H74.4773V56.8391ZM78.3554 56.8391V57.9737H79.5614L79.4879 56.77L78.3554 56.8391ZM77.7737 55.0293L76.902 55.7557L76.9075 55.7622L77.7737 55.0293ZM76.4071 62.011C75.1379 62.011 74.323 61.6452 73.7838 61.0525L72.1053 62.5795C73.1789 63.7596 74.6724 64.2802 76.4071 64.2802V62.011ZM73.7865 61.0554C73.2343 60.4442 72.8696 59.4603 72.8696 57.9194H70.6004C70.6004 59.7888 71.042 61.4026 72.1027 62.5766L73.7865 61.0554ZM72.8696 57.9194C72.8696 56.4491 73.233 55.4952 73.7965 54.885L72.1295 53.3454C71.0556 54.5081 70.6004 56.0904 70.6004 57.9194H72.8696ZM73.7965 54.885C74.35 54.2858 75.1756 53.9202 76.4441 53.9202V51.651C74.7085 51.651 73.2135 52.1718 72.1295 53.3454L73.7965 54.885ZM76.4441 53.9202C77.6009 53.9202 78.3399 54.2888 78.8424 54.9221L80.62 53.5115C79.6082 52.2365 78.1558 51.651 76.4441 51.651V53.9202ZM78.8447 54.9249C79.3772 55.5917 79.7323 56.6875 79.7323 58.3903H82.0015C82.0015 56.4244 81.5995 54.7379 80.6177 53.5087L78.8447 54.9249ZM79.7323 58.3903V58.4642H82.0015V58.3903H79.7323ZM80.8669 57.3296H74.4589V59.5988H80.8669V57.3296ZM73.3242 58.4642C73.3242 59.5454 73.5174 60.5572 74.0719 61.3316L75.9169 60.0105C75.7574 59.7876 75.5935 59.3282 75.5935 58.4642H73.3242ZM74.0813 61.3445C74.6789 62.1549 75.5475 62.5443 76.5364 62.5443V60.2751C76.1957 60.2751 76.0362 60.1721 75.9075 59.9976L74.0813 61.3445ZM76.5364 62.5443C77.1545 62.5443 77.7717 62.4102 78.3002 62.0475C78.8395 61.6775 79.1778 61.1441 79.3584 60.5469L77.1862 59.8902C77.1267 60.0871 77.0557 60.1493 77.0163 60.1764C76.9662 60.2107 76.8355 60.2751 76.5364 60.2751V62.5443ZM78.1742 61.3489L80.6211 61.5613L80.8173 59.3006L78.3704 59.0882L78.1742 61.3489ZM79.6625 60.0176C79.3837 60.7305 78.9903 61.2017 78.5058 61.5068C78.0119 61.8177 77.335 62.011 76.4071 62.011V64.2802C77.6461 64.2802 78.7713 64.0211 79.7147 63.4271C80.6675 62.8273 81.3468 61.9412 81.7758 60.8443L79.6625 60.0176ZM76.4071 53.2853C75.5003 53.2853 74.6782 53.6201 74.1009 54.3578L75.8879 55.7563C75.9754 55.6445 76.0951 55.5545 76.4071 55.5545V53.2853ZM74.0946 54.3659C73.5712 55.0472 73.3649 55.9068 73.343 56.8117L75.6116 56.8666C75.6267 56.2448 75.7651 55.9163 75.8942 55.7482L74.0946 54.3659ZM74.4773 57.9737H78.3554V55.7045H74.4773V57.9737ZM79.4879 56.77C79.4313 55.8436 79.2014 54.96 78.6398 54.2964L76.9075 55.7622C77.0232 55.8989 77.181 56.2218 77.2229 56.9083L79.4879 56.77ZM78.6453 54.303C78.0718 53.6147 77.2847 53.2853 76.4071 53.2853V55.5545C76.6745 55.5545 76.7985 55.6314 76.9021 55.7557L78.6453 54.303ZM88.0864 62.9609H86.9518V64.0956H88.0864V62.9609ZM84.7808 55.5372L83.8583 54.8767L83.8568 54.8787L84.7808 55.5372ZM84.2083 62.9609V64.0956H85.343V62.9609H84.2083ZM81.6137 62.9609H80.4791V64.0956H81.6137V62.9609ZM81.586 53.8936L80.4521 53.9341L80.4525 53.9448L80.4531 53.9554L81.586 53.8936ZM81.5399 52.9703V51.8356H80.3253L80.4079 53.0474L81.5399 52.9703ZM84.0144 52.9703L85.1352 52.7933L84.984 51.8356H84.0144V52.9703ZM84.0883 53.9121L82.9558 53.9803L82.9558 53.9811L84.0883 53.9121ZM84.1345 54.9555H82.9999V56.0901H84.1345V54.9555ZM84.1714 54.9555V56.0901H84.8986L85.2023 55.4294L84.1714 54.9555ZM90.6718 62.9609V64.0956H91.8064V62.9609H90.6718ZM89.221 62.9609V57.3562H86.9518V62.9609H89.221ZM89.221 57.3562C89.221 56.3865 89.0633 55.4595 88.5804 54.7463C88.044 53.9542 87.2214 53.59 86.3044 53.59V55.8592C86.4614 55.8592 86.5438 55.8878 86.5829 55.9071C86.6171 55.9239 86.6558 55.9513 86.7014 56.0187C86.8125 56.1827 86.9518 56.5715 86.9518 57.3562H89.221ZM86.3044 53.59C85.285 53.59 84.4438 54.0588 83.8583 54.8767L85.7034 56.1977C85.8934 55.9322 86.068 55.8592 86.3044 55.8592V53.59ZM83.8568 54.8787C83.304 55.6545 83.0737 56.5928 83.0737 57.6055H85.343C85.343 56.9315 85.4944 56.491 85.7048 56.1957L83.8568 54.8787ZM83.0737 57.6055V62.9609H85.343V57.6055H83.0737ZM84.2083 61.8263H81.6137V64.0956H84.2083V61.8263ZM82.7483 62.9609V55.2048H80.4791V62.9609H82.7483ZM82.7483 55.2048C82.7483 54.6589 82.739 54.1992 82.719 53.8318L80.4531 53.9554C80.47 54.2652 80.4791 54.6795 80.4791 55.2048H82.7483ZM82.7199 53.8531C82.7073 53.4993 82.6913 53.1789 82.6718 52.8931L80.4079 53.0474C80.4253 53.3033 80.4402 53.5985 80.4521 53.9341L82.7199 53.8531ZM81.5399 54.1049H84.0144V51.8356H81.5399V54.1049ZM82.8937 53.1472C82.8933 53.1445 82.8958 53.161 82.9005 53.2078C82.9048 53.2509 82.9098 53.3085 82.9156 53.3822C82.9272 53.5294 82.9406 53.728 82.9558 53.9803L85.2209 53.8439C85.1915 53.3562 85.1642 52.9773 85.1352 52.7933L82.8937 53.1472ZM82.9558 53.9811C82.9867 54.4884 82.9999 54.8038 82.9999 54.9555H85.2691C85.2691 54.7255 85.2515 54.3453 85.2208 53.843L82.9558 53.9811ZM84.1345 56.0901H84.1714V53.8209H84.1345V56.0901ZM85.2023 55.4294C85.4925 54.7981 85.8112 54.4394 86.1109 54.2442L84.8727 52.3426C84.1136 52.8369 83.5521 53.5863 83.1405 54.4816L85.2023 55.4294ZM86.1109 54.2442C86.4282 54.0377 86.8361 53.911 87.3847 53.911V51.6417C86.4682 51.6417 85.6142 51.8598 84.8727 52.3426L86.1109 54.2442ZM87.3847 53.911C88.1953 53.911 88.6624 54.1497 88.9654 54.4988L90.6792 53.0114C89.8496 52.0556 88.6916 51.6417 87.3847 51.6417V53.911ZM88.9654 54.4988C89.2865 54.8687 89.5372 55.5136 89.5372 56.6175H91.8064C91.8064 55.2099 91.4908 53.9465 90.6792 53.0114L88.9654 54.4988ZM89.5372 56.6175V62.9609H91.8064V56.6175H89.5372ZM90.6718 61.8263H88.0864V64.0956H90.6718V61.8263ZM92.739 62.5085L91.9308 63.3048L91.9367 63.3108L92.739 62.5085ZM92.1204 54.7246H93.255V53.59H92.1204V54.7246ZM90.8554 54.7246H89.7208V55.8592H90.8554V54.7246ZM90.8554 52.9703V51.8356H89.7208V52.9703H90.8554ZM92.2496 52.9703V54.1049H93.0573L93.3217 53.3417L92.2496 52.9703ZM93.0622 50.6249V49.4903H92.2545L91.9901 50.2535L93.0622 50.6249ZM94.6873 50.6249H95.8219V49.4903H94.6873V50.6249ZM94.6873 52.9703H93.5527V54.1049H94.6873V52.9703ZM96.5802 52.9703H97.7148V51.8356H96.5802V52.9703ZM96.5802 54.7246V55.8592H97.7148V54.7246H96.5802ZM94.6873 54.7246V53.59H93.5527V54.7246H94.6873ZM94.9643 60.9942L94.0738 61.6973L94.0783 61.703L94.083 61.7088L94.9643 60.9942ZM96.691 61.2066H97.8256V59.782L96.4372 60.1007L96.691 61.2066ZM96.691 62.8132L97.0435 63.8916L97.8256 63.636V62.8132H96.691ZM94.5026 61.9925C93.9436 61.9925 93.6812 61.8461 93.5413 61.7062L91.9367 63.3108C92.6217 63.9958 93.535 64.2618 94.5026 64.2618V61.9925ZM93.5472 61.7122C93.4203 61.5833 93.255 61.291 93.255 60.6156H90.9858C90.9858 61.6269 91.2329 62.5965 91.9308 63.3048L93.5472 61.7122ZM93.255 60.6156V54.7246H90.9858V60.6156H93.255ZM92.1204 53.59H90.8554V55.8592H92.1204V53.59ZM91.99 54.7246V52.9703H89.7208V54.7246H91.99ZM90.8554 54.1049H92.2496V51.8356H90.8554V54.1049ZM93.3217 53.3417L94.1343 50.9964L91.9901 50.2535L91.1775 52.5988L93.3217 53.3417ZM93.0622 51.7596H94.6873V49.4903H93.0622V51.7596ZM93.5527 50.6249V52.9703H95.8219V50.6249H93.5527ZM94.6873 54.1049H96.5802V51.8356H94.6873V54.1049ZM95.4455 52.9703V54.7246H97.7148V52.9703H95.4455ZM96.5802 53.59H94.6873V55.8592H96.5802V53.59ZM93.5527 54.7246V59.9139H95.8219V54.7246H93.5527ZM93.5527 59.9139C93.5527 60.5064 93.6585 61.1712 94.0738 61.6973L95.8548 60.2911C95.8817 60.3252 95.8719 60.3303 95.8556 60.2669C95.839 60.2021 95.8219 60.0894 95.8219 59.9139H93.5527ZM94.083 61.7088C94.548 62.2823 95.2115 62.4705 95.823 62.4705V60.2012C95.737 60.2012 95.7169 60.1882 95.7369 60.1962C95.7478 60.2005 95.7663 60.2095 95.7881 60.2253C95.8102 60.2413 95.8298 60.2601 95.8456 60.2796L94.083 61.7088ZM95.823 62.4705C96.1567 62.4705 96.5461 62.4039 96.9448 62.3124L96.4372 60.1007C96.0849 60.1816 95.8956 60.2012 95.823 60.2012V62.4705ZM95.5564 61.2066V62.8132H97.8256V61.2066H95.5564ZM96.3384 61.7348C95.8335 61.8998 95.2265 61.9925 94.5026 61.9925V64.2618C95.4162 64.2618 96.2681 64.1452 97.0435 63.8916L96.3384 61.7348Z" fill="#EE0000" fill-opacity="0.61"/>
<path d="M73.2314 1.20215C73.2314 1.20215 86.9515 2.80788 93.914 7.62508C100.876 12.4423 104.358 18.2631 104.358 18.2631H101.286V19.2667H99.6478V21.0731H98.4191V22.6789V28.0982H96.7809V29.9047H95.3474V31.5104V32.7147H93.914V34.1197H92.2758V35.7255V37.1305H90.8423V38.1341H86.3372V36.729H85.1085V34.1197H83.4703V22.6789H81.8321V21.0731H80.6034V18.2631H79.17V16.8581H76.3031V18.2631H70.1597V16.8581H68.931V14.8509H66.8833V12.0409H65.8594V9.63225L66.8833 9.23082V7.62508H68.931V6.22007H70.1597V5.01576H71.5932V1.80429H73.2314V1.20215Z" fill="white"/>
<path d="M100.65 30.8514C100.65 30.8514 100.65 29.1617 101.249 28.8238C101.848 28.4859 102.048 28.3169 103.247 28.8238C104.446 29.3307 103.846 32.2031 103.846 32.2031V35.9202H102.248V36.934H100.65V35.9202H99.451V34.5685H98.6719V33.1204L99.2862 32.5182L99.451 30.8514H100.65Z" fill="white"/>
<defs>
<linearGradient id="paint0_linear" x1="60" y1="1.84062e-06" x2="1.57051" y2="82.602" gradientUnits="userSpaceOnUse">
<stop offset="0.159457" stop-color="#FF671A"/>
<stop offset="0.989583" stop-color="#FF323E"/>
</linearGradient>
</defs>
</svg>
