<svg width="362" height="869" viewBox="0 0 362 869" fill="none" xmlns="http://www.w3.org/2000/svg">
<g id="Humans / settings">
<g id="services_icon">
<g id="file2">
<rect id="Rectangle 86" x="70.3516" y="512.365" width="258.433" height="335.348" rx="9.6852" fill="#F1BC9F"/>
<g id="rectangle">
<rect id="Rectangle 85" x="4.47009" y="489.262" width="236.126" height="328.644" rx="6.70514" fill="white" stroke="#F9E4D8" stroke-width="8.94019"/>
<g id="notes">
<path id="Rectangle 93" d="M38.6172 543.665C38.6172 537.491 43.6219 532.486 49.7954 532.486H193.787C199.96 532.486 204.965 537.491 204.965 543.665C204.965 549.838 199.96 554.843 193.787 554.843H49.7954C43.6219 554.843 38.6172 549.838 38.6172 543.665Z" fill="#F1BC9F"/>
<path id="Rectangle 95" d="M38.6172 677.803C38.6172 671.63 43.6219 666.625 49.7955 666.625H122.495C128.668 666.625 133.673 671.63 133.673 677.803C133.673 683.977 128.668 688.982 122.495 688.982H49.7955C43.6219 688.982 38.6172 683.977 38.6172 677.803Z" fill="#F1BC9F"/>
<path id="Rectangle 96" d="M38.6172 722.516C38.6172 716.343 43.6218 711.338 49.7954 711.338H100.959C107.132 711.338 112.137 716.343 112.137 722.516C112.137 728.69 107.132 733.694 100.959 733.694H49.7954C43.6218 733.694 38.6172 728.69 38.6172 722.516Z" fill="#F1BC9F"/>
<path id="Rectangle 97" d="M38.6172 767.23C38.6172 761.056 43.6218 756.052 49.7953 756.052H100.959C107.132 756.052 112.137 761.056 112.137 767.23C112.137 773.403 107.132 778.408 100.959 778.408H49.7953C43.6218 778.408 38.6172 773.403 38.6172 767.23Z" fill="#F1BC9F"/>
<path id="Rectangle 94" d="M38.6172 587.628C38.6172 581.868 43.287 577.198 49.0474 577.198H194.535C200.295 577.198 204.965 581.868 204.965 587.628V633.092C204.965 638.853 200.295 643.523 194.535 643.523H49.0474C43.287 643.523 38.6172 638.853 38.6172 633.092V587.628Z" fill="#F1BC9F"/>
</g>
</g>
</g>
<g id="settings">
<path id="Ellipse 17" d="M319.461 748.521C319.461 793.051 283.488 829.149 239.113 829.149C194.738 829.149 158.766 793.051 158.766 748.521C158.766 703.991 194.738 667.893 239.113 667.893C283.488 667.893 319.461 703.991 319.461 748.521ZM205.108 748.521C205.108 767.367 220.333 782.645 239.113 782.645C257.894 782.645 273.118 767.367 273.118 748.521C273.118 729.675 257.894 714.397 239.113 714.397C220.333 714.397 205.108 729.675 205.108 748.521Z" fill="#E3783E"/>
<path id="Rectangle 88" d="M204.676 677.609V640.246C204.676 633.886 209.831 628.731 216.191 628.731H261.711C268.071 628.731 273.226 633.886 273.226 640.246V677.609H204.676Z" fill="#E3783E"/>
<path id="Rectangle 89" d="M160.715 743.25L128.38 724.786C122.857 721.632 120.924 714.591 124.061 709.059L146.604 669.305C149.741 663.773 156.761 661.845 162.283 664.998L194.618 683.462L160.715 743.25Z" fill="#E3783E"/>
<path id="Rectangle 90" d="M196.156 813.847L164.105 832.803C158.631 836.04 151.582 834.219 148.362 828.735L125.219 789.331C121.998 783.847 123.825 776.777 129.299 773.539L161.35 754.583L196.156 813.847Z" fill="#E3783E"/>
<path id="Rectangle 91" d="M274.184 819.062L274.216 856.426C274.221 862.786 269.07 867.946 262.71 867.951L217.19 867.991C210.831 867.996 205.671 862.845 205.665 856.486L205.633 819.122L274.184 819.062Z" fill="#E3783E"/>
<path id="Rectangle 92" d="M319.844 753.222L352.043 771.924C357.542 775.118 359.424 782.173 356.247 787.682L333.413 827.269C330.236 832.778 323.202 834.654 317.702 831.46L285.504 812.758L319.844 753.222Z" fill="#E3783E"/>
<path id="Rectangle 87" d="M285.199 681.63L317.325 662.802C322.812 659.586 329.853 661.435 333.052 666.931L356.039 706.427C359.238 711.924 357.384 718.987 351.897 722.202L319.771 741.031L285.199 681.63Z" fill="#E3783E"/>
</g>
</g>
<rect id="Rectangle 165" x="56.8359" y="6" width="271.088" height="272.878" stroke="#FCF2EC" stroke-width="12"/>
<g id="human">
<g id="head">
<g id="Head">
<path id="Vector" fill-rule="evenodd" clip-rule="evenodd" d="M241.452 190.211C245.167 185.72 247.681 180.217 247.261 174.051C246.051 156.283 222.034 160.192 217.363 169.159C212.691 178.127 213.246 200.874 219.284 202.476C221.692 203.115 226.821 201.55 232.042 198.309L228.765 222.183H248.113L241.452 190.211Z" fill="#B28B67"/>
</g>
<path id="Hair" fill-rule="evenodd" clip-rule="evenodd" d="M231.078 176.012C230.338 186.637 228.379 191.949 225.201 191.949C220.434 191.949 216.39 188.833 214.298 188.833C212.774 188.833 213.114 190.798 214.125 192.255C214.958 193.457 219.019 194.615 219.019 196.479C219.019 198.342 215.811 196.9 215.811 198.006C215.811 199.834 215.247 203.271 218.328 203.271C221.446 203.271 230.386 202.101 231.918 197.335C232.906 194.259 233.546 187.886 233.835 178.215C234.025 178.192 234.217 178.18 234.412 178.18C237.084 178.18 239.249 180.41 239.249 183.162C239.249 184.558 238.691 185.821 237.792 186.725C238.911 188.352 240.166 190.052 241.603 191.805C247.003 188.469 251.01 178.702 245.731 169.32C244.272 164.724 240.968 162.269 237.067 161.129C233.906 159.768 230.626 159.614 227.856 160.43C222.428 160.91 217.58 162.615 216.206 163.627C216.206 168.92 217.202 170.49 225.708 170.352C227.798 171.489 229.405 173.446 231.078 176.012Z" fill="#442413"/>
</g>
<g id="right_leg">
<g id="down">
<path id="Skin" fill-rule="evenodd" clip-rule="evenodd" d="M135.541 471.634C145.871 448.09 153.341 427.589 156.339 416.772C161.474 398.252 165.379 381.955 166.367 375.869C168.721 361.356 148.258 360.511 145.553 367.724C141.46 378.64 134.313 414.508 125.726 468.684L135.541 471.634Z" fill="#B28B67"/>
<path id="Leg Back" fill-rule="evenodd" clip-rule="evenodd" d="M175.788 369.313L227.051 342.439V336.589H220.954C171.36 349.603 146.017 357.944 144.926 361.61C144.914 361.65 144.903 361.689 144.894 361.729C144.869 361.762 144.844 361.796 144.82 361.831C134.991 375.751 129.105 443.711 127.173 448.8L146.007 451.693C153.211 424.181 176.261 405.015 175.649 372.064C175.814 371.097 175.856 370.181 175.788 369.313Z" fill="#B66032"/>
<path id="shoe" fill-rule="evenodd" clip-rule="evenodd" d="M139.521 468.79C139.712 471.43 139.639 473.341 139.304 474.523C138.897 475.96 138.069 477.987 136.822 480.604C135.204 480.117 120.655 475.741 93.1759 467.476C93.1369 463.273 94.3829 461.385 96.9139 461.812C99.4449 462.239 101.554 462.572 103.241 462.81L126.169 459.598C126.61 459.537 127.016 459.855 127.076 460.309C127.077 460.317 127.078 460.325 127.079 460.332L127.459 463.982C129.413 465.75 131.097 466.846 132.511 467.272C133.66 467.617 135.383 467.617 137.679 467.27L137.679 467.27C138.56 467.137 139.379 467.764 139.508 468.672C139.514 468.711 139.518 468.75 139.521 468.79Z" fill="#5B3019"/>
</g>
<path id="Pant" fill-rule="evenodd" clip-rule="evenodd" d="M273.007 342.4C250 352.956 226.497 358.111 172.646 386.063L146.073 362.83C181.616 319.842 202.008 314.421 229.851 302.584L273.007 342.4Z" fill="#B66032"/>
</g>
<g id="bottom">
<path id="Leg" fill-rule="evenodd" clip-rule="evenodd" d="M275.987 314.354C273.927 368.796 274.739 398.49 275.201 403.437C275.662 408.383 278.28 441.51 296.121 499.496H281.621C257.993 443.868 249.745 410.741 247.035 403.437C244.325 396.132 236.322 366.438 224.637 314.354H275.987Z" fill="#B28B67"/>
<g id="shoe_left">
<path id="Shoe" fill-rule="evenodd" clip-rule="evenodd" d="M298.996 510.29L298.196 497.006C293.512 498.417 287.644 497.864 280.594 495.346C273.014 500.876 263.471 504.651 251.966 506.673L251.966 506.674C251.088 506.828 250.498 507.686 250.647 508.59C250.657 508.648 250.67 508.706 250.686 508.763L251.792 512.781H280.594H297.396L298.996 510.29Z" fill="#5B3019"/>
</g>
<path id="Pant_2" fill-rule="evenodd" clip-rule="evenodd" d="M274.194 314.354C271.951 368.791 277.764 422.421 295.77 487.873H271.59C245.281 433.08 226.426 379.715 213.539 314.354H274.194Z" fill="#CC6C38"/>
</g>
<g id="file">
<path id="Rectangle 73" d="M127.48 192.697L161.4 190.792L176.631 255.865L144.293 264.526L127.48 192.697Z" fill="#F7D7C5"/>
<g id="display">
<path id="Vector 54" d="M157.152 228.591L163.055 228.519M157.817 231.434L163.72 231.363M158.482 234.278L164.385 234.207" stroke="#F9E4D8" stroke-width="0.909072"/>
<path id="Vector 53" d="M141.402 232.048L147.305 231.976M142.067 234.891L147.97 234.82M142.732 237.735L148.635 237.664" stroke="#F9E4D8" stroke-width="0.909072"/>
<path id="Vector 52" d="M137.574 200.566L153.188 199.025" stroke="#F9E4D8" stroke-width="0.909072"/>
<g id="africa_globe">
<g id="Ellipse 12">
<mask id="path-29-inside-1" fill="white">
<ellipse rx="8.65248" ry="9.95231" transform="matrix(0.965884 -0.259061 0.227619 0.973769 148.873 215.959)"/>
</mask>
<ellipse rx="8.65248" ry="9.95231" transform="matrix(0.965884 -0.259061 0.227619 0.973769 148.873 215.959)" fill="#F9E4D8"/>
<path d="M147.571 216.308C147.666 216.712 147.554 216.885 147.601 216.792C147.63 216.738 147.723 216.579 147.941 216.393C148.17 216.196 148.489 216.012 148.862 215.912L153.414 235.387C164.589 232.39 169.087 220.532 166.889 211.126L147.571 216.308ZM148.862 215.912C149.234 215.812 149.596 215.813 149.886 215.871C150.16 215.926 150.312 216.018 150.361 216.052C150.443 216.11 150.268 216.014 150.174 215.609L130.857 220.791C133.055 230.196 142.239 238.385 153.414 235.387L148.862 215.912ZM150.174 215.609C150.079 215.205 150.191 215.033 150.144 215.125C150.116 215.179 150.022 215.338 149.804 215.524C149.575 215.721 149.256 215.905 148.883 216.005L144.331 196.53C133.156 199.527 128.658 211.385 130.857 220.791L150.174 215.609ZM148.883 216.005C148.511 216.105 148.149 216.104 147.86 216.046C147.585 215.991 147.433 215.899 147.385 215.865C147.303 215.807 147.477 215.903 147.571 216.308L166.889 211.126C164.69 201.721 155.506 193.533 144.331 196.53L148.883 216.005Z" fill="#F9E4D8" mask="url(#path-29-inside-1)"/>
</g>
<path id="rectangle 3" d="M154.278 214.525C154.278 214.525 154.189 214.144 154.281 214.038C154.374 213.932 154.402 213.884 154.65 213.939C154.897 213.994 154.939 214.673 154.939 214.673L155.135 215.513L154.84 215.592L154.894 215.821L154.599 215.9L154.546 215.671L154.325 215.73L154.253 215.425L154.109 215.463L154.033 215.136L154.114 214.969L154.057 214.585L154.278 214.525Z" fill="#FCF2EC"/>
<path id="rectangle 2" d="M145.68 205.96C145.68 205.96 149.122 205.51 151.127 206.389C153.133 207.269 154.448 208.39 154.448 208.39L153.609 208.854L153.674 209.132L153.275 209.238L153.392 209.739L153.094 209.819L153.197 210.263L153.548 211.764L153.15 211.871L153.267 212.371L152.918 212.464L153.022 212.909L153.1 213.243L152.751 213.336L152.842 213.725L152.443 213.832L152.547 214.277L152.638 214.666L152.29 214.759L152.355 215.037L151.259 215.331L151.168 214.942L150.869 215.022L150.7 214.3L150.301 214.406L149.561 211.239L149.162 211.346L149.058 210.901L148.76 210.981L148.578 210.203L148.229 210.297L148.138 209.908L147.441 210.095L147.532 210.484L146.037 210.885L145.946 210.496L145.647 210.576L145.517 210.02L145.019 210.154L144.837 209.376L144.588 209.442L144.432 208.776L144.655 208.598L144.551 208.153L145.05 208.019L144.959 207.63L145.258 207.55L145.18 207.217L145.528 207.123L145.321 206.234L145.719 206.127L145.68 205.96Z" fill="#FCF2EC"/>
</g>
</g>
<path id="helper" d="M170.893 231.985L166.876 233.311L169.61 241.046L173.231 240.707L172.427 236.402L170.893 231.985Z" fill="#F7D7C5"/>
</g>
<g id="up">
<path id="Skin_2" fill-rule="evenodd" clip-rule="evenodd" d="M213.203 241.876L183.708 225.105C179.055 219.414 176.055 216.803 173.231 216.803C170.406 216.803 167.12 218.904 169.377 223.029C171.634 227.155 174.38 224.576 173.231 225.847C172.081 227.118 169.214 225.342 167.842 227.454C166.927 228.862 170.175 229.537 180.886 232.577L202.87 253.298L213.203 241.876ZM169.377 255.192L157.086 248.239C155.361 241.48 153.3 238.08 150.901 238.038C149.058 237.155 152.267 245.695 148.774 244.954C145.281 244.213 142.046 235.402 140.577 236.728C138.404 238.69 135.051 246.994 137.334 249.99C141.602 255.589 145.135 257.504 153.868 260.012C158.434 261.323 163.37 263.951 168.677 267.895L169.377 255.192Z" fill="#997659"/>
<path id="Sleeve" fill-rule="evenodd" clip-rule="evenodd" d="M226.834 238.359C217.032 238.253 203.962 236.121 190.016 227.004L184.54 239.582C194.159 249.414 207.685 257.491 219.512 257.149C228.832 256.88 233.595 245.27 226.834 238.359Z" fill="#F4C9B2"/>
<path id="Clothes" fill-rule="evenodd" clip-rule="evenodd" d="M213.635 258.53C203.23 261.203 185.781 258.051 161.288 249.076C155.213 262.019 152.405 271.247 152.863 276.759C173.874 288.061 191.883 293.101 206.719 293.433C206.248 302.499 207.319 311.126 210.919 319.008C218.319 335.213 261.651 320.206 276.221 323.159C285.345 292.645 267.703 280.243 267.689 260.718C267.673 239.336 251.002 206.424 248.549 206.424L226.18 206.424C224.946 222.754 218.734 240.751 213.635 258.53Z" fill="#F7D7C5"/>
</g>
</g>
</g>
</svg>
